<svg xmlns="http://www.w3.org/2000/svg" viewBox="0 0 2000 1000" width="2000" height="1000" role="img" aria-label="GenX Digitizing logo">
  <title>GenX Digitizing logo</title>
  <path d="
  M 1216 791 L 1216 943 L 1249 943 L 1250 942 L 1250 849 L 1251 848 L 1252 849 L 1252 850 L 1253 851 L 1253 852 L 1254 853 L 1254 854 L 1256 856 L 1256 857 L 1257 858 L 1257 859 L 1258 860 L 1258 861 L 1260 863 L 1260 864 L 1261 865 L 1261 866 L 1262 867 L 1262 868 L 1264 870 L 1264 871 L 1265 872 L 1265 873 L 1266 874 L 1266 875 L 1268 877 L 1268 878 L 1269 879 L 1269 880 L 1270 881 L 1270 882 L 1272 884 L 1272 885 L 1273 886 L 1273 887 L 1274 888 L 1274 889 L 1276 891 L 1276 892 L 1277 893 L 1277 894 L 1278 895 L 1278 896 L 1280 898 L 1280 899 L 1281 900 L 1281 901 L 1282 902 L 1282 903 L 1284 905 L 1284 906 L 1285 907 L 1285 908 L 1286 909 L 1286 910 L 1288 912 L 1288 913 L 1289 914 L 1289 915 L 1290 916 L 1290 917 L 1292 919 L 1292 920 L 1293 921 L 1293 922 L 1294 923 L 1294 924 L 1296 926 L 1296 927 L 1297 928 L 1297 929 L 1298 930 L 1298 931 L 1300 933 L 1300 934 L 1301 935 L 1301 936 L 1302 937 L 1302 938 L 1304 940 L 1304 941 L 1305 942 L 1305 943 L 1345 943 L 1345 791 L 1312 791 L 1312 889 L 1311 890 L 1310 889 L 1310 888 L 1308 886 L 1308 885 L 1307 884 L 1307 883 L 1306 882 L 1306 881 L 1305 880 L 1305 879 L 1303 877 L 1303 876 L 1302 875 L 1302 874 L 1301 873 L 1301 872 L 1300 871 L 1300 870 L 1298 868 L 1298 867 L 1297 866 L 1297 865 L 1296 864 L 1296 863 L 1295 862 L 1295 861 L 1293 859 L 1293 858 L 1292 857 L 1292 856 L 1291 855 L 1291 854 L 1290 853 L 1290 852 L 1288 850 L 1288 849 L 1287 848 L 1287 847 L 1286 846 L 1286 845 L 1285 844 L 1285 843 L 1283 841 L 1283 840 L 1282 839 L 1282 838 L 1281 837 L 1281 836 L 1280 835 L 1280 834 L 1278 832 L 1278 831 L 1277 830 L 1277 829 L 1276 828 L 1276 827 L 1275 826 L 1275 825 L 1273 823 L 1273 822 L 1272 821 L 1272 820 L 1271 819 L 1271 818 L 1270 817 L 1270 816 L 1268 814 L 1268 813 L 1267 812 L 1267 811 L 1266 810 L 1266 809 L 1265 808 L 1265 807 L 1263 805 L 1263 804 L 1262 803 L 1262 802 L 1261 801 L 1261 800 L 1260 799 L 1260 798 L 1258 796 L 1258 795 L 1257 794 L 1257 793 L 1256 792 L 1256 791 Z
  M 1168 791 L 1168 942 L 1202 942 L 1202 791 Z
  M 1040 791 L 1040 821 L 1114 821 L 1115 822 L 1112 825 L 1112 826 L 1107 831 L 1107 832 L 1102 837 L 1102 838 L 1097 843 L 1097 844 L 1092 849 L 1092 850 L 1086 856 L 1086 857 L 1081 862 L 1081 863 L 1076 868 L 1076 869 L 1071 874 L 1071 875 L 1066 880 L 1066 881 L 1061 886 L 1061 887 L 1056 892 L 1056 893 L 1051 898 L 1051 899 L 1046 904 L 1046 905 L 1041 910 L 1041 911 L 1040 912 L 1040 942 L 1155 942 L 1155 912 L 1082 912 L 1081 911 L 1081 910 L 1087 904 L 1087 903 L 1092 898 L 1092 897 L 1097 892 L 1097 891 L 1102 886 L 1102 885 L 1107 880 L 1107 879 L 1112 874 L 1112 873 L 1117 868 L 1117 867 L 1123 861 L 1123 860 L 1128 855 L 1128 854 L 1133 849 L 1133 848 L 1138 843 L 1138 842 L 1143 837 L 1143 836 L 1148 831 L 1148 830 L 1154 824 L 1154 823 L 1155 822 L 1155 791 Z
  M 996 791 L 996 942 L 1030 942 L 1030 791 Z
  M 874 791 L 874 820 L 913 820 L 914 821 L 914 942 L 947 942 L 947 821 L 948 820 L 987 820 L 987 791 Z
  M 832 791 L 832 942 L 866 942 L 866 792 L 865 791 Z
  M 637 791 L 637 942 L 671 942 L 671 791 Z
  M 501 791 L 501 942 L 571 942 L 572 941 L 577 941 L 578 940 L 581 940 L 582 939 L 584 939 L 585 938 L 587 938 L 588 937 L 589 937 L 590 936 L 591 936 L 592 935 L 593 935 L 594 934 L 595 934 L 596 933 L 597 933 L 599 931 L 600 931 L 602 929 L 603 929 L 612 920 L 612 919 L 615 916 L 615 915 L 617 913 L 617 912 L 618 911 L 618 910 L 620 908 L 620 906 L 621 905 L 621 904 L 622 903 L 622 901 L 623 900 L 623 899 L 624 898 L 624 895 L 625 894 L 625 892 L 626 891 L 626 887 L 627 886 L 627 880 L 628 879 L 628 854 L 627 853 L 627 847 L 626 846 L 626 842 L 625 841 L 625 839 L 624 838 L 624 835 L 623 834 L 623 833 L 622 832 L 622 830 L 621 829 L 621 828 L 620 827 L 620 826 L 619 825 L 619 824 L 618 823 L 618 822 L 617 821 L 617 820 L 615 818 L 615 817 L 612 814 L 612 813 L 603 804 L 602 804 L 600 802 L 599 802 L 597 800 L 596 800 L 595 799 L 594 799 L 593 798 L 592 798 L 591 797 L 590 797 L 589 796 L 588 796 L 587 795 L 585 795 L 584 794 L 581 794 L 580 793 L 577 793 L 576 792 L 572 792 L 571 791 Z
  M 534 820 L 554 820 L 555 821 L 562 821 L 563 822 L 567 822 L 568 823 L 570 823 L 571 824 L 572 824 L 573 825 L 574 825 L 575 826 L 576 826 L 580 830 L 581 830 L 583 832 L 583 833 L 586 836 L 586 837 L 587 838 L 587 839 L 588 840 L 588 841 L 589 842 L 589 844 L 590 845 L 590 848 L 591 849 L 591 855 L 592 856 L 592 877 L 591 878 L 591 883 L 590 884 L 590 887 L 589 888 L 589 890 L 588 891 L 588 892 L 587 893 L 587 894 L 586 895 L 586 896 L 585 897 L 585 898 L 579 904 L 578 904 L 575 907 L 574 907 L 573 908 L 572 908 L 571 909 L 569 909 L 568 910 L 565 910 L 564 911 L 560 911 L 559 912 L 534 912 L 533 911 L 533 821 Z
  M 1382 800 L 1378 804 L 1377 804 L 1376 805 L 1376 806 L 1369 813 L 1369 814 L 1367 816 L 1367 817 L 1365 819 L 1365 820 L 1364 821 L 1364 822 L 1363 823 L 1363 824 L 1362 825 L 1362 826 L 1361 827 L 1361 828 L 1360 829 L 1360 831 L 1359 832 L 1359 833 L 1358 834 L 1358 836 L 1357 837 L 1357 840 L 1356 841 L 1356 844 L 1355 845 L 1355 850 L 1354 851 L 1354 858 L 1353 859 L 1353 874 L 1354 875 L 1354 883 L 1355 884 L 1355 888 L 1356 889 L 1356 892 L 1357 893 L 1357 896 L 1358 897 L 1358 899 L 1359 900 L 1359 902 L 1360 903 L 1360 904 L 1361 905 L 1361 906 L 1362 907 L 1362 908 L 1363 909 L 1363 911 L 1364 912 L 1364 913 L 1367 916 L 1367 917 L 1368 918 L 1368 919 L 1372 923 L 1372 924 L 1379 931 L 1380 931 L 1384 935 L 1385 935 L 1386 936 L 1387 936 L 1389 938 L 1390 938 L 1391 939 L 1392 939 L 1393 940 L 1395 940 L 1396 941 L 1398 941 L 1399 942 L 1402 942 L 1403 943 L 1407 943 L 1408 944 L 1429 944 L 1430 943 L 1434 943 L 1435 942 L 1438 942 L 1439 941 L 1440 941 L 1441 940 L 1442 940 L 1443 939 L 1445 939 L 1447 937 L 1448 937 L 1450 935 L 1451 935 L 1457 929 L 1457 928 L 1460 925 L 1460 924 L 1461 923 L 1461 922 L 1462 921 L 1463 921 L 1464 922 L 1464 942 L 1488 942 L 1488 860 L 1427 860 L 1427 883 L 1454 883 L 1455 884 L 1455 893 L 1454 894 L 1454 896 L 1453 897 L 1453 899 L 1452 900 L 1452 901 L 1451 902 L 1451 903 L 1449 905 L 1449 906 L 1442 913 L 1441 913 L 1440 914 L 1439 914 L 1438 915 L 1437 915 L 1436 916 L 1434 916 L 1433 917 L 1425 917 L 1424 918 L 1420 918 L 1419 917 L 1415 917 L 1414 916 L 1412 916 L 1411 915 L 1410 915 L 1409 914 L 1408 914 L 1407 913 L 1406 913 L 1404 911 L 1403 911 L 1398 906 L 1398 905 L 1396 903 L 1396 902 L 1394 900 L 1394 899 L 1393 898 L 1393 897 L 1392 896 L 1392 894 L 1391 893 L 1391 891 L 1390 890 L 1390 889 L 1389 888 L 1389 883 L 1388 882 L 1388 875 L 1387 874 L 1387 861 L 1388 860 L 1388 853 L 1389 852 L 1389 848 L 1390 847 L 1390 845 L 1391 844 L 1391 842 L 1392 841 L 1392 839 L 1393 838 L 1393 837 L 1394 836 L 1394 835 L 1395 834 L 1395 833 L 1397 831 L 1397 830 L 1405 822 L 1406 822 L 1407 821 L 1408 821 L 1409 820 L 1411 820 L 1412 819 L 1413 819 L 1414 818 L 1421 818 L 1422 817 L 1423 818 L 1430 818 L 1431 819 L 1434 819 L 1435 820 L 1436 820 L 1437 821 L 1438 821 L 1439 822 L 1440 822 L 1448 830 L 1448 831 L 1449 832 L 1449 833 L 1450 834 L 1450 835 L 1451 836 L 1451 837 L 1452 838 L 1452 840 L 1488 840 L 1488 839 L 1487 838 L 1487 836 L 1486 835 L 1486 834 L 1485 833 L 1485 831 L 1484 830 L 1484 828 L 1483 827 L 1483 826 L 1481 824 L 1481 823 L 1480 822 L 1480 821 L 1479 820 L 1479 819 L 1478 818 L 1478 817 L 1475 814 L 1475 813 L 1472 810 L 1472 809 L 1465 802 L 1464 802 L 1461 799 L 1460 799 L 1458 797 L 1457 797 L 1456 796 L 1455 796 L 1454 795 L 1453 795 L 1452 794 L 1451 794 L 1450 793 L 1449 793 L 1448 792 L 1446 792 L 1445 791 L 1443 791 L 1442 790 L 1438 790 L 1437 789 L 1431 789 L 1430 788 L 1416 788 L 1415 789 L 1408 789 L 1407 790 L 1403 790 L 1402 791 L 1400 791 L 1399 792 L 1397 792 L 1396 793 L 1394 793 L 1393 794 L 1392 794 L 1391 795 L 1390 795 L 1389 796 L 1388 796 L 1386 798 L 1385 798 L 1383 800 Z
  M 714 797 L 711 800 L 710 800 L 707 803 L 706 803 L 700 809 L 700 810 L 696 814 L 696 815 L 694 817 L 694 818 L 692 820 L 692 821 L 691 822 L 691 823 L 690 824 L 690 825 L 689 826 L 689 828 L 688 829 L 688 830 L 687 831 L 687 833 L 686 834 L 686 835 L 685 836 L 685 839 L 684 840 L 684 843 L 683 844 L 683 848 L 682 849 L 682 855 L 681 856 L 681 877 L 682 878 L 682 884 L 683 885 L 683 889 L 684 890 L 684 893 L 685 894 L 685 897 L 686 898 L 686 900 L 687 901 L 687 902 L 688 903 L 688 905 L 689 906 L 689 907 L 690 908 L 690 909 L 691 910 L 691 911 L 692 912 L 692 913 L 694 915 L 694 916 L 696 918 L 696 919 L 698 921 L 698 922 L 709 933 L 710 933 L 712 935 L 713 935 L 715 937 L 716 937 L 717 938 L 718 938 L 719 939 L 720 939 L 721 940 L 723 940 L 724 941 L 725 941 L 726 942 L 730 942 L 731 943 L 735 943 L 736 944 L 756 944 L 757 943 L 762 943 L 763 942 L 766 942 L 767 941 L 768 941 L 769 940 L 770 940 L 771 939 L 772 939 L 773 938 L 774 938 L 775 937 L 776 937 L 780 933 L 781 933 L 783 931 L 783 930 L 787 926 L 787 925 L 789 923 L 789 922 L 790 921 L 791 922 L 791 942 L 816 942 L 816 860 L 755 860 L 755 883 L 782 883 L 783 884 L 783 892 L 782 893 L 782 895 L 781 896 L 781 898 L 780 899 L 780 900 L 779 901 L 779 903 L 776 906 L 776 907 L 771 912 L 770 912 L 768 914 L 767 914 L 766 915 L 765 915 L 764 916 L 761 916 L 760 917 L 753 917 L 752 918 L 748 918 L 747 917 L 743 917 L 742 916 L 740 916 L 739 915 L 738 915 L 737 914 L 736 914 L 735 913 L 734 913 L 732 911 L 731 911 L 725 905 L 725 904 L 723 902 L 723 901 L 722 900 L 722 899 L 720 897 L 720 895 L 719 894 L 719 892 L 718 891 L 718 889 L 717 888 L 717 885 L 716 884 L 716 879 L 715 878 L 715 857 L 716 856 L 716 851 L 717 850 L 717 847 L 718 846 L 718 844 L 719 843 L 719 841 L 720 840 L 720 838 L 722 836 L 722 835 L 723 834 L 723 833 L 724 832 L 724 831 L 733 822 L 734 822 L 735 821 L 736 821 L 737 820 L 738 820 L 739 819 L 741 819 L 742 818 L 749 818 L 750 817 L 751 818 L 758 818 L 759 819 L 761 819 L 762 820 L 764 820 L 765 821 L 766 821 L 768 823 L 769 823 L 775 829 L 775 830 L 777 832 L 777 833 L 778 834 L 778 835 L 779 836 L 779 838 L 780 839 L 780 840 L 815 840 L 815 837 L 814 836 L 814 834 L 813 833 L 813 832 L 812 831 L 812 829 L 811 828 L 811 827 L 810 826 L 810 825 L 809 824 L 809 823 L 808 822 L 808 821 L 806 819 L 806 818 L 805 817 L 805 816 L 802 813 L 802 812 L 790 800 L 789 800 L 786 797 L 785 797 L 784 796 L 783 796 L 782 795 L 781 795 L 780 794 L 779 794 L 778 793 L 777 793 L 776 792 L 774 792 L 773 791 L 770 791 L 769 790 L 765 790 L 764 789 L 759 789 L 758 788 L 744 788 L 743 789 L 736 789 L 735 790 L 731 790 L 730 791 L 728 791 L 727 792 L 725 792 L 724 793 L 722 793 L 721 794 L 719 794 L 717 796 L 716 796 L 715 797 Z
  M 1896 498 L 1895 499 L 1892 499 L 1891 500 L 1889 500 L 1888 501 L 1887 501 L 1886 502 L 1884 502 L 1883 503 L 1882 503 L 1881 504 L 1880 504 L 1879 505 L 1878 505 L 1876 507 L 1875 507 L 1873 509 L 1872 509 L 1868 513 L 1867 513 L 1861 519 L 1861 520 L 1857 524 L 1857 525 L 1854 528 L 1854 529 L 1853 530 L 1853 531 L 1851 533 L 1851 534 L 1850 535 L 1850 536 L 1849 537 L 1849 539 L 1848 540 L 1848 541 L 1847 542 L 1847 544 L 1846 545 L 1846 548 L 1845 549 L 1845 552 L 1844 553 L 1844 560 L 1843 561 L 1843 576 L 1844 577 L 1844 584 L 1845 585 L 1845 588 L 1846 589 L 1846 591 L 1847 592 L 1847 594 L 1848 595 L 1848 597 L 1849 598 L 1849 599 L 1850 600 L 1850 602 L 1851 603 L 1851 604 L 1853 606 L 1853 607 L 1854 608 L 1854 609 L 1856 611 L 1856 612 L 1859 615 L 1859 616 L 1868 625 L 1869 625 L 1873 629 L 1874 629 L 1876 631 L 1877 631 L 1878 632 L 1879 632 L 1880 633 L 1881 633 L 1882 634 L 1883 634 L 1884 635 L 1885 635 L 1886 636 L 1888 636 L 1889 637 L 1891 637 L 1892 638 L 1893 638 L 1894 639 L 1898 639 L 1899 640 L 1905 640 L 1906 641 L 1924 641 L 1925 640 L 1930 640 L 1931 639 L 1935 639 L 1936 638 L 1938 638 L 1939 637 L 1941 637 L 1942 636 L 1944 636 L 1945 635 L 1946 635 L 1947 634 L 1948 634 L 1949 633 L 1950 633 L 1951 632 L 1952 632 L 1954 630 L 1955 630 L 1957 628 L 1958 628 L 1961 625 L 1962 625 L 1972 615 L 1972 614 L 1975 611 L 1975 610 L 1977 608 L 1977 607 L 1978 606 L 1978 605 L 1980 603 L 1980 602 L 1981 601 L 1981 599 L 1982 598 L 1982 597 L 1983 596 L 1983 594 L 1984 593 L 1984 591 L 1985 590 L 1985 588 L 1986 587 L 1986 583 L 1987 582 L 1987 573 L 1988 572 L 1988 565 L 1987 564 L 1987 555 L 1986 554 L 1986 550 L 1985 549 L 1985 546 L 1984 545 L 1984 543 L 1983 542 L 1983 540 L 1982 539 L 1982 538 L 1981 537 L 1981 536 L 1980 535 L 1980 534 L 1979 533 L 1979 532 L 1977 530 L 1977 529 L 1975 527 L 1975 526 L 1972 523 L 1972 522 L 1962 512 L 1961 512 L 1958 509 L 1957 509 L 1955 507 L 1954 507 L 1952 505 L 1951 505 L 1950 504 L 1949 504 L 1948 503 L 1947 503 L 1946 502 L 1945 502 L 1944 501 L 1942 501 L 1941 500 L 1939 500 L 1938 499 L 1935 499 L 1934 498 L 1929 498 L 1928 497 L 1921 497 L 1920 496 L 1910 496 L 1909 497 L 1902 497 L 1901 498 Z
  M 887 303 L 886 303 L 885 302 L 884 302 L 883 301 L 882 301 L 881 300 L 880 300 L 879 299 L 878 299 L 877 298 L 876 298 L 875 297 L 873 297 L 872 296 L 870 296 L 869 295 L 867 295 L 866 294 L 863 294 L 862 293 L 859 293 L 858 292 L 853 292 L 852 291 L 846 291 L 845 290 L 811 290 L 810 291 L 803 291 L 802 292 L 796 292 L 795 293 L 791 293 L 790 294 L 786 294 L 785 295 L 782 295 L 781 296 L 777 296 L 776 297 L 774 297 L 773 298 L 771 298 L 770 299 L 768 299 L 767 300 L 765 300 L 764 301 L 762 301 L 761 302 L 759 302 L 758 303 L 757 303 L 756 304 L 754 304 L 753 305 L 752 305 L 751 306 L 749 306 L 748 307 L 747 307 L 746 308 L 745 308 L 744 309 L 743 309 L 742 310 L 741 310 L 740 311 L 739 311 L 738 312 L 737 312 L 736 313 L 735 313 L 734 314 L 733 314 L 732 315 L 731 315 L 730 316 L 729 316 L 728 317 L 727 317 L 726 318 L 725 318 L 723 320 L 722 320 L 720 322 L 719 322 L 718 323 L 717 323 L 716 324 L 715 324 L 713 326 L 712 326 L 710 328 L 709 328 L 706 331 L 705 331 L 703 333 L 702 333 L 699 336 L 698 336 L 695 339 L 694 339 L 689 344 L 688 344 L 684 348 L 683 348 L 677 354 L 676 354 L 667 363 L 666 363 L 662 367 L 662 368 L 646 384 L 646 385 L 639 392 L 639 393 L 635 397 L 635 398 L 631 402 L 631 403 L 628 406 L 628 407 L 625 410 L 625 411 L 623 413 L 623 414 L 620 417 L 620 418 L 618 420 L 618 421 L 616 423 L 616 424 L 614 426 L 614 427 L 612 429 L 612 430 L 611 431 L 611 432 L 609 434 L 609 435 L 607 437 L 607 438 L 606 439 L 606 440 L 604 442 L 604 443 L 603 444 L 603 445 L 602 446 L 602 447 L 600 449 L 600 450 L 599 451 L 599 452 L 598 453 L 598 454 L 597 455 L 597 456 L 596 457 L 596 458 L 594 460 L 594 461 L 593 462 L 593 463 L 592 464 L 592 465 L 591 466 L 591 467 L 590 468 L 590 469 L 589 470 L 589 471 L 588 472 L 588 474 L 587 475 L 587 476 L 586 477 L 586 478 L 585 479 L 585 480 L 584 481 L 584 482 L 583 483 L 583 485 L 582 486 L 582 487 L 581 488 L 581 489 L 580 490 L 580 492 L 579 493 L 579 494 L 578 495 L 578 497 L 577 498 L 577 499 L 576 500 L 576 502 L 575 503 L 575 505 L 574 506 L 574 508 L 573 509 L 573 511 L 572 512 L 572 514 L 571 515 L 571 517 L 570 518 L 570 520 L 569 521 L 569 523 L 568 524 L 568 527 L 567 528 L 567 531 L 566 532 L 566 535 L 565 536 L 565 539 L 564 540 L 564 543 L 563 544 L 563 548 L 562 549 L 562 554 L 561 555 L 561 560 L 560 561 L 560 568 L 559 569 L 559 579 L 558 580 L 558 605 L 559 606 L 559 615 L 560 616 L 560 621 L 561 622 L 561 627 L 562 628 L 562 630 L 563 631 L 563 634 L 564 635 L 564 637 L 565 638 L 565 641 L 566 642 L 566 644 L 567 645 L 567 646 L 568 647 L 568 649 L 569 650 L 569 651 L 570 652 L 570 654 L 571 655 L 571 656 L 572 657 L 572 659 L 574 661 L 574 662 L 575 663 L 575 664 L 576 665 L 576 666 L 577 667 L 577 668 L 579 670 L 579 671 L 580 672 L 580 673 L 582 675 L 582 676 L 584 678 L 584 679 L 588 683 L 588 684 L 594 690 L 594 691 L 598 695 L 599 695 L 605 701 L 606 701 L 610 705 L 611 705 L 613 707 L 614 707 L 616 709 L 617 709 L 619 711 L 620 711 L 622 713 L 623 713 L 624 714 L 625 714 L 626 715 L 627 715 L 628 716 L 629 716 L 630 717 L 632 717 L 633 718 L 634 718 L 635 719 L 636 719 L 637 720 L 639 720 L 640 721 L 642 721 L 643 722 L 645 722 L 646 723 L 649 723 L 650 724 L 653 724 L 654 725 L 659 725 L 660 726 L 667 726 L 668 727 L 698 727 L 699 726 L 706 726 L 707 725 L 713 725 L 714 724 L 719 724 L 720 723 L 724 723 L 725 722 L 728 722 L 729 721 L 732 721 L 733 720 L 735 720 L 736 719 L 739 719 L 740 718 L 742 718 L 743 717 L 745 717 L 746 716 L 748 716 L 749 715 L 751 715 L 752 714 L 753 714 L 754 713 L 756 713 L 757 712 L 758 712 L 759 711 L 761 711 L 762 710 L 763 710 L 764 709 L 765 709 L 766 708 L 767 708 L 768 707 L 770 707 L 771 706 L 772 706 L 773 705 L 774 705 L 775 704 L 776 704 L 777 703 L 778 703 L 779 702 L 780 702 L 781 701 L 782 701 L 783 700 L 784 700 L 785 699 L 786 699 L 788 697 L 789 697 L 790 696 L 791 696 L 792 695 L 793 695 L 795 693 L 796 693 L 797 692 L 798 692 L 800 690 L 801 690 L 802 689 L 803 689 L 805 687 L 806 687 L 808 685 L 809 685 L 811 683 L 812 683 L 814 681 L 815 681 L 817 679 L 818 679 L 821 676 L 822 676 L 824 674 L 825 674 L 828 671 L 829 671 L 832 668 L 833 668 L 837 664 L 838 664 L 842 660 L 843 660 L 848 655 L 849 655 L 856 648 L 857 648 L 866 639 L 867 639 L 875 631 L 875 630 L 865 620 L 864 620 L 863 619 L 856 626 L 855 626 L 847 634 L 846 634 L 842 638 L 841 638 L 837 642 L 836 642 L 832 646 L 831 646 L 829 648 L 828 648 L 826 650 L 825 650 L 823 652 L 822 652 L 819 655 L 818 655 L 816 657 L 815 657 L 814 658 L 813 658 L 812 659 L 811 659 L 809 661 L 808 661 L 807 662 L 806 662 L 805 663 L 804 663 L 803 664 L 802 664 L 800 666 L 799 666 L 798 667 L 796 667 L 795 668 L 794 668 L 793 669 L 792 669 L 791 670 L 789 670 L 788 671 L 787 671 L 786 672 L 785 672 L 784 673 L 781 673 L 780 674 L 778 674 L 777 675 L 775 675 L 774 676 L 772 676 L 771 677 L 769 677 L 768 678 L 764 678 L 763 679 L 758 679 L 757 680 L 754 680 L 753 681 L 737 681 L 736 682 L 735 681 L 723 681 L 722 680 L 717 680 L 716 679 L 713 679 L 712 678 L 709 678 L 708 677 L 705 677 L 704 676 L 702 676 L 701 675 L 700 675 L 699 674 L 698 674 L 697 673 L 695 673 L 694 672 L 693 672 L 692 671 L 691 671 L 690 670 L 689 670 L 688 669 L 687 669 L 686 668 L 685 668 L 683 666 L 682 666 L 680 664 L 679 664 L 677 662 L 676 662 L 674 660 L 673 660 L 670 657 L 669 657 L 659 647 L 659 646 L 655 642 L 655 641 L 653 639 L 653 638 L 652 637 L 652 636 L 650 634 L 650 633 L 649 632 L 649 631 L 648 630 L 648 628 L 647 627 L 647 626 L 646 625 L 646 624 L 645 623 L 645 621 L 644 620 L 644 618 L 643 617 L 643 615 L 642 614 L 642 612 L 641 611 L 641 607 L 640 606 L 640 602 L 639 601 L 639 594 L 638 593 L 638 582 L 637 581 L 637 563 L 638 562 L 638 551 L 639 550 L 639 544 L 640 543 L 640 538 L 641 537 L 641 534 L 642 533 L 642 530 L 644 528 L 648 528 L 649 527 L 666 527 L 667 526 L 679 526 L 680 525 L 690 525 L 691 524 L 698 524 L 699 523 L 706 523 L 707 522 L 712 522 L 713 521 L 718 521 L 719 520 L 724 520 L 725 519 L 729 519 L 730 518 L 734 518 L 735 517 L 739 517 L 740 516 L 743 516 L 744 515 L 747 515 L 748 514 L 752 514 L 753 513 L 755 513 L 756 512 L 759 512 L 760 511 L 762 511 L 763 510 L 766 510 L 767 509 L 769 509 L 770 508 L 772 508 L 773 507 L 775 507 L 776 506 L 778 506 L 779 505 L 781 505 L 782 504 L 784 504 L 785 503 L 786 503 L 787 502 L 789 502 L 790 501 L 791 501 L 792 500 L 794 500 L 795 499 L 796 499 L 797 498 L 798 498 L 799 497 L 800 497 L 801 496 L 803 496 L 804 495 L 805 495 L 806 494 L 807 494 L 808 493 L 809 493 L 810 492 L 811 492 L 812 491 L 813 491 L 814 490 L 815 490 L 816 489 L 817 489 L 818 488 L 819 488 L 820 487 L 821 487 L 823 485 L 824 485 L 825 484 L 826 484 L 827 483 L 828 483 L 829 482 L 830 482 L 831 481 L 832 481 L 834 479 L 835 479 L 836 478 L 837 478 L 839 476 L 840 476 L 842 474 L 843 474 L 844 473 L 845 473 L 847 471 L 848 471 L 851 468 L 852 468 L 854 466 L 855 466 L 857 464 L 858 464 L 862 460 L 863 460 L 867 456 L 868 456 L 877 447 L 878 447 L 879 446 L 879 445 L 889 435 L 889 434 L 893 430 L 893 429 L 896 426 L 896 425 L 898 423 L 898 422 L 900 420 L 900 419 L 902 417 L 902 416 L 903 415 L 903 414 L 905 412 L 905 411 L 907 409 L 907 408 L 908 407 L 908 406 L 909 405 L 909 404 L 910 403 L 910 402 L 911 401 L 911 400 L 912 399 L 912 398 L 913 397 L 913 396 L 914 395 L 914 393 L 915 392 L 915 391 L 916 390 L 916 388 L 917 387 L 917 386 L 918 385 L 918 383 L 919 382 L 919 379 L 920 378 L 920 375 L 921 374 L 921 369 L 922 368 L 922 351 L 921 350 L 921 346 L 920 345 L 920 342 L 919 341 L 919 339 L 918 338 L 918 336 L 917 335 L 917 334 L 916 333 L 916 332 L 915 331 L 915 330 L 913 328 L 913 327 L 912 326 L 912 325 L 908 321 L 908 320 L 902 314 L 901 314 L 897 310 L 896 310 L 893 307 L 892 307 L 890 305 L 889 305 Z
  M 846 321 L 846 322 L 849 325 L 849 326 L 851 328 L 851 329 L 852 330 L 852 331 L 853 332 L 853 333 L 855 335 L 855 337 L 856 338 L 856 341 L 857 342 L 857 349 L 858 350 L 858 351 L 857 352 L 857 361 L 856 362 L 856 366 L 855 367 L 855 371 L 854 372 L 854 374 L 853 375 L 853 377 L 852 378 L 852 381 L 851 382 L 851 383 L 850 384 L 850 386 L 849 387 L 849 389 L 848 390 L 848 392 L 847 393 L 847 394 L 846 395 L 846 396 L 845 397 L 845 398 L 844 399 L 844 400 L 843 401 L 843 402 L 842 403 L 842 404 L 841 405 L 841 406 L 840 407 L 840 408 L 839 409 L 839 410 L 837 412 L 837 413 L 836 414 L 836 415 L 834 417 L 834 418 L 832 420 L 832 421 L 830 423 L 830 424 L 827 427 L 827 428 L 824 431 L 824 432 L 820 436 L 820 437 L 815 442 L 815 443 L 799 459 L 798 459 L 793 464 L 792 464 L 789 467 L 788 467 L 785 470 L 784 470 L 782 472 L 781 472 L 780 473 L 779 473 L 777 475 L 776 475 L 774 477 L 773 477 L 772 478 L 771 478 L 770 479 L 769 479 L 767 481 L 766 481 L 765 482 L 764 482 L 763 483 L 762 483 L 761 484 L 760 484 L 759 485 L 758 485 L 757 486 L 756 486 L 755 487 L 754 487 L 753 488 L 751 488 L 750 489 L 749 489 L 748 490 L 746 490 L 745 491 L 744 491 L 743 492 L 741 492 L 740 493 L 738 493 L 737 494 L 735 494 L 734 495 L 732 495 L 731 496 L 729 496 L 728 497 L 725 497 L 724 498 L 721 498 L 720 499 L 718 499 L 717 500 L 713 500 L 712 501 L 709 501 L 708 502 L 705 502 L 704 503 L 699 503 L 698 504 L 694 504 L 693 505 L 687 505 L 686 506 L 681 506 L 680 507 L 673 507 L 672 508 L 664 508 L 663 509 L 654 509 L 653 510 L 650 510 L 649 509 L 649 506 L 650 505 L 650 501 L 651 500 L 651 497 L 652 496 L 652 494 L 653 493 L 653 490 L 654 489 L 654 487 L 655 486 L 655 484 L 656 483 L 656 481 L 657 480 L 657 478 L 658 477 L 658 475 L 659 474 L 659 472 L 660 471 L 660 469 L 661 468 L 661 467 L 662 466 L 662 464 L 663 463 L 663 462 L 664 461 L 664 459 L 665 458 L 665 457 L 666 456 L 666 455 L 667 454 L 667 452 L 668 451 L 668 450 L 669 449 L 669 448 L 670 447 L 670 445 L 671 444 L 671 443 L 672 442 L 672 441 L 673 440 L 673 439 L 674 438 L 674 437 L 675 436 L 675 435 L 676 434 L 676 433 L 677 432 L 677 431 L 678 430 L 678 429 L 679 428 L 679 427 L 680 426 L 680 425 L 681 424 L 681 423 L 682 422 L 682 421 L 683 420 L 683 419 L 685 417 L 685 416 L 686 415 L 686 414 L 687 413 L 687 412 L 688 411 L 688 410 L 690 408 L 690 407 L 691 406 L 691 405 L 693 403 L 693 402 L 694 401 L 694 400 L 696 398 L 696 397 L 698 395 L 698 394 L 700 392 L 700 391 L 702 389 L 702 388 L 704 386 L 704 385 L 707 382 L 707 381 L 710 378 L 710 377 L 713 374 L 713 373 L 716 370 L 716 369 L 721 364 L 721 363 L 728 356 L 728 355 L 748 335 L 749 335 L 753 331 L 754 331 L 758 327 L 759 327 L 761 325 L 762 325 L 764 323 L 765 323 L 767 321 L 768 321 L 769 320 L 770 320 L 771 319 L 772 319 L 774 317 L 775 317 L 776 316 L 777 316 L 778 315 L 780 315 L 781 314 L 782 314 L 783 313 L 784 313 L 785 312 L 788 312 L 789 311 L 791 311 L 792 310 L 795 310 L 796 309 L 800 309 L 801 308 L 812 308 L 813 307 L 814 308 L 823 308 L 824 309 L 827 309 L 828 310 L 830 310 L 831 311 L 832 311 L 833 312 L 835 312 L 837 314 L 838 314 L 842 318 L 843 318 Z
  M 615 73 L 597 73 L 596 74 L 596 75 L 595 76 L 595 77 L 594 78 L 594 79 L 593 80 L 593 81 L 591 83 L 591 84 L 588 87 L 588 88 L 579 97 L 578 97 L 576 99 L 575 99 L 573 101 L 571 101 L 570 102 L 569 102 L 568 103 L 565 103 L 564 104 L 560 104 L 559 105 L 550 105 L 549 104 L 545 104 L 544 103 L 541 103 L 540 102 L 538 102 L 537 101 L 534 101 L 533 100 L 531 100 L 530 99 L 528 99 L 527 98 L 526 98 L 525 97 L 523 97 L 522 96 L 521 96 L 520 95 L 518 95 L 517 94 L 516 94 L 515 93 L 513 93 L 512 92 L 511 92 L 510 91 L 508 91 L 507 90 L 506 90 L 505 89 L 503 89 L 502 88 L 500 88 L 499 87 L 497 87 L 496 86 L 494 86 L 493 85 L 491 85 L 490 84 L 488 84 L 487 83 L 484 83 L 483 82 L 480 82 L 479 81 L 476 81 L 475 80 L 471 80 L 470 79 L 466 79 L 465 78 L 461 78 L 460 77 L 455 77 L 454 76 L 448 76 L 447 75 L 441 75 L 440 74 L 432 74 L 431 73 L 418 73 L 417 72 L 401 72 L 400 73 L 379 73 L 378 74 L 369 74 L 368 75 L 359 75 L 358 76 L 353 76 L 352 77 L 348 77 L 347 78 L 341 78 L 340 79 L 336 79 L 335 80 L 330 80 L 329 81 L 326 81 L 325 82 L 322 82 L 321 83 L 318 83 L 317 84 L 314 84 L 313 85 L 311 85 L 310 86 L 307 86 L 306 87 L 304 87 L 303 88 L 301 88 L 300 89 L 298 89 L 297 90 L 295 90 L 294 91 L 292 91 L 291 92 L 289 92 L 288 93 L 286 93 L 285 94 L 283 94 L 282 95 L 280 95 L 279 96 L 278 96 L 277 97 L 276 97 L 275 98 L 273 98 L 272 99 L 271 99 L 270 100 L 268 100 L 267 101 L 266 101 L 265 102 L 263 102 L 262 103 L 261 103 L 260 104 L 259 104 L 258 105 L 257 105 L 256 106 L 255 106 L 254 107 L 253 107 L 252 108 L 251 108 L 250 109 L 249 109 L 248 110 L 247 110 L 246 111 L 245 111 L 244 112 L 243 112 L 242 113 L 241 113 L 240 114 L 239 114 L 238 115 L 237 115 L 236 116 L 235 116 L 234 117 L 233 117 L 232 118 L 231 118 L 229 120 L 228 120 L 227 121 L 226 121 L 225 122 L 224 122 L 222 124 L 221 124 L 220 125 L 219 125 L 217 127 L 216 127 L 215 128 L 214 128 L 212 130 L 211 130 L 210 131 L 209 131 L 206 134 L 205 134 L 204 135 L 203 135 L 201 137 L 200 137 L 198 139 L 197 139 L 195 141 L 194 141 L 192 143 L 191 143 L 188 146 L 187 146 L 184 149 L 183 149 L 180 152 L 179 152 L 177 154 L 176 154 L 173 157 L 172 157 L 167 162 L 166 162 L 162 166 L 161 166 L 155 172 L 154 172 L 147 179 L 146 179 L 121 204 L 121 205 L 111 215 L 111 216 L 107 220 L 107 221 L 102 226 L 102 227 L 97 232 L 97 233 L 94 236 L 94 237 L 91 240 L 91 241 L 89 243 L 89 244 L 86 247 L 86 248 L 84 250 L 84 251 L 81 254 L 81 255 L 79 257 L 79 258 L 77 260 L 77 261 L 76 262 L 76 263 L 74 265 L 74 266 L 72 268 L 72 269 L 70 271 L 70 272 L 68 274 L 68 275 L 67 276 L 67 277 L 65 279 L 65 280 L 64 281 L 64 282 L 63 283 L 63 284 L 61 286 L 61 287 L 60 288 L 60 289 L 59 290 L 59 291 L 58 292 L 58 293 L 56 295 L 56 296 L 55 297 L 55 298 L 54 299 L 54 300 L 53 301 L 53 302 L 52 303 L 52 304 L 51 305 L 51 306 L 50 307 L 50 308 L 49 309 L 49 310 L 48 311 L 48 312 L 47 313 L 47 314 L 46 315 L 46 316 L 45 317 L 45 318 L 44 319 L 44 320 L 43 321 L 43 322 L 42 323 L 42 325 L 41 326 L 41 327 L 40 328 L 40 330 L 39 331 L 39 332 L 38 333 L 38 335 L 37 336 L 37 337 L 36 338 L 36 340 L 35 341 L 35 342 L 34 343 L 34 345 L 33 346 L 33 347 L 32 348 L 32 350 L 31 351 L 31 353 L 30 354 L 30 356 L 29 357 L 29 359 L 28 360 L 28 362 L 27 363 L 27 366 L 26 367 L 26 369 L 25 370 L 25 372 L 24 373 L 24 376 L 23 377 L 23 380 L 22 381 L 22 384 L 21 385 L 21 388 L 20 389 L 20 392 L 19 393 L 19 396 L 18 397 L 18 402 L 17 403 L 17 407 L 16 408 L 16 413 L 15 414 L 15 419 L 14 420 L 14 428 L 13 429 L 13 437 L 12 438 L 12 453 L 11 454 L 11 484 L 12 485 L 12 498 L 13 499 L 13 508 L 14 509 L 14 515 L 15 516 L 15 522 L 16 523 L 16 527 L 17 528 L 17 532 L 18 533 L 18 536 L 19 537 L 19 541 L 20 542 L 20 545 L 21 546 L 21 548 L 22 549 L 22 552 L 23 553 L 23 555 L 24 556 L 24 558 L 25 559 L 25 561 L 26 562 L 26 564 L 27 565 L 27 567 L 28 568 L 28 570 L 29 571 L 29 572 L 30 573 L 30 575 L 31 576 L 31 577 L 32 578 L 32 579 L 33 580 L 33 582 L 34 583 L 34 584 L 35 585 L 35 586 L 36 587 L 36 588 L 37 589 L 37 590 L 38 591 L 38 592 L 39 593 L 39 594 L 40 595 L 40 596 L 41 597 L 41 598 L 42 599 L 42 600 L 43 601 L 43 602 L 45 604 L 45 605 L 46 606 L 46 607 L 47 608 L 47 609 L 49 611 L 49 612 L 51 614 L 51 615 L 52 616 L 52 617 L 54 619 L 54 620 L 56 622 L 56 623 L 59 626 L 59 627 L 61 629 L 61 630 L 64 633 L 64 634 L 69 639 L 69 640 L 73 644 L 73 645 L 96 668 L 97 668 L 101 672 L 102 672 L 106 676 L 107 676 L 111 680 L 112 680 L 114 682 L 115 682 L 117 684 L 118 684 L 120 686 L 121 686 L 124 689 L 125 689 L 126 690 L 127 690 L 129 692 L 130 692 L 131 693 L 132 693 L 134 695 L 135 695 L 136 696 L 137 696 L 138 697 L 139 697 L 141 699 L 142 699 L 143 700 L 144 700 L 145 701 L 146 701 L 147 702 L 148 702 L 149 703 L 150 703 L 151 704 L 152 704 L 153 705 L 154 705 L 155 706 L 157 706 L 158 707 L 159 707 L 160 708 L 161 708 L 162 709 L 163 709 L 164 710 L 166 710 L 167 711 L 168 711 L 169 712 L 171 712 L 172 713 L 174 713 L 175 714 L 177 714 L 178 715 L 179 715 L 180 716 L 182 716 L 183 717 L 186 717 L 187 718 L 189 718 L 190 719 L 193 719 L 194 720 L 196 720 L 197 721 L 200 721 L 201 722 L 204 722 L 205 723 L 209 723 L 210 724 L 214 724 L 215 725 L 218 725 L 219 726 L 225 726 L 226 727 L 232 727 L 233 728 L 243 728 L 244 729 L 254 729 L 255 730 L 294 730 L 295 729 L 307 729 L 308 728 L 319 728 L 320 727 L 326 727 L 327 726 L 334 726 L 335 725 L 341 725 L 342 724 L 347 724 L 348 723 L 352 723 L 353 722 L 357 722 L 358 721 L 363 721 L 364 720 L 368 720 L 369 719 L 372 719 L 373 718 L 377 718 L 378 717 L 381 717 L 382 716 L 385 716 L 386 715 L 389 715 L 390 714 L 393 714 L 394 713 L 396 713 L 397 712 L 400 712 L 401 711 L 403 711 L 404 710 L 406 710 L 407 709 L 409 709 L 410 708 L 413 708 L 414 707 L 416 707 L 417 706 L 419 706 L 420 705 L 422 705 L 423 704 L 425 704 L 426 703 L 427 703 L 428 702 L 430 702 L 431 701 L 433 701 L 434 700 L 435 700 L 436 699 L 438 699 L 439 698 L 440 698 L 441 697 L 443 697 L 444 696 L 445 696 L 446 695 L 447 695 L 448 694 L 450 694 L 451 693 L 452 693 L 453 692 L 454 692 L 455 691 L 456 691 L 457 690 L 459 690 L 460 689 L 461 689 L 462 688 L 463 688 L 464 687 L 464 686 L 465 685 L 465 682 L 466 681 L 466 679 L 467 678 L 467 675 L 468 674 L 468 672 L 469 671 L 469 668 L 470 667 L 470 665 L 471 664 L 471 661 L 472 660 L 472 658 L 473 657 L 473 654 L 474 653 L 474 651 L 475 650 L 475 647 L 476 646 L 476 644 L 477 643 L 477 640 L 478 639 L 478 637 L 479 636 L 479 633 L 480 632 L 480 630 L 481 629 L 481 626 L 482 625 L 482 623 L 483 622 L 483 619 L 484 618 L 484 616 L 485 615 L 485 612 L 486 611 L 486 609 L 487 608 L 487 605 L 488 604 L 488 602 L 489 601 L 489 598 L 490 597 L 490 595 L 491 594 L 491 591 L 492 590 L 492 588 L 493 587 L 493 584 L 494 583 L 494 581 L 495 580 L 495 578 L 496 577 L 496 574 L 497 573 L 497 571 L 498 570 L 498 567 L 499 566 L 499 564 L 500 563 L 500 560 L 501 559 L 501 557 L 502 556 L 502 553 L 503 552 L 503 550 L 504 549 L 504 546 L 505 545 L 505 542 L 506 541 L 506 539 L 507 538 L 507 536 L 508 535 L 508 532 L 509 531 L 509 529 L 510 528 L 510 525 L 511 524 L 511 522 L 512 521 L 512 518 L 513 517 L 513 515 L 514 514 L 514 511 L 515 510 L 515 508 L 516 507 L 516 504 L 517 503 L 517 501 L 518 500 L 518 497 L 519 496 L 519 494 L 520 493 L 520 490 L 521 489 L 521 487 L 522 486 L 522 484 L 523 483 L 523 480 L 524 479 L 524 477 L 525 476 L 525 474 L 526 473 L 526 471 L 527 470 L 527 468 L 528 467 L 528 466 L 529 465 L 529 463 L 530 462 L 530 461 L 531 460 L 531 458 L 532 457 L 532 456 L 533 455 L 533 454 L 534 453 L 534 452 L 535 451 L 535 450 L 536 449 L 536 448 L 538 446 L 538 445 L 540 443 L 540 442 L 544 438 L 544 437 L 550 431 L 551 431 L 554 428 L 555 428 L 557 426 L 558 426 L 559 425 L 561 425 L 562 424 L 563 424 L 564 423 L 566 423 L 567 422 L 569 422 L 570 421 L 573 421 L 574 420 L 579 420 L 580 419 L 586 419 L 587 418 L 596 418 L 597 417 L 614 417 L 615 416 L 615 415 L 616 414 L 616 412 L 617 411 L 617 408 L 618 407 L 618 405 L 619 404 L 619 401 L 620 400 L 351 400 L 350 401 L 350 403 L 349 404 L 349 406 L 348 407 L 348 409 L 347 410 L 347 412 L 346 413 L 346 415 L 345 416 L 358 416 L 359 417 L 380 417 L 381 418 L 387 418 L 388 419 L 394 419 L 395 420 L 398 420 L 399 421 L 401 421 L 402 422 L 405 422 L 406 423 L 408 423 L 409 424 L 410 424 L 411 425 L 412 425 L 413 426 L 414 426 L 416 428 L 417 428 L 424 435 L 424 436 L 426 438 L 426 439 L 427 440 L 427 441 L 428 442 L 428 445 L 429 446 L 429 449 L 430 450 L 430 465 L 429 466 L 429 472 L 428 473 L 428 477 L 427 478 L 427 482 L 426 483 L 426 487 L 425 488 L 425 491 L 424 492 L 424 496 L 423 497 L 423 500 L 422 501 L 422 504 L 421 505 L 421 508 L 420 509 L 420 512 L 419 513 L 419 515 L 418 516 L 418 519 L 417 520 L 417 523 L 416 524 L 416 526 L 415 527 L 415 530 L 414 531 L 414 533 L 413 534 L 413 537 L 412 538 L 412 540 L 411 541 L 411 544 L 410 545 L 410 548 L 409 549 L 409 551 L 408 552 L 408 555 L 407 556 L 407 558 L 406 559 L 406 562 L 405 563 L 405 565 L 404 566 L 404 569 L 403 570 L 403 572 L 402 573 L 402 576 L 401 577 L 401 579 L 400 580 L 400 583 L 399 584 L 399 586 L 398 587 L 398 590 L 397 591 L 397 593 L 396 594 L 396 597 L 395 598 L 395 600 L 394 601 L 394 604 L 393 605 L 393 607 L 392 608 L 392 611 L 391 612 L 391 614 L 390 615 L 390 618 L 389 619 L 389 621 L 388 622 L 388 625 L 387 626 L 387 628 L 386 629 L 386 632 L 385 633 L 385 635 L 384 636 L 384 639 L 383 640 L 383 642 L 382 643 L 382 646 L 381 647 L 381 649 L 380 650 L 380 653 L 379 654 L 379 656 L 378 657 L 378 660 L 377 661 L 377 663 L 376 664 L 376 667 L 375 668 L 375 670 L 374 671 L 374 674 L 371 677 L 370 677 L 369 678 L 367 678 L 366 679 L 365 679 L 364 680 L 362 680 L 361 681 L 360 681 L 359 682 L 357 682 L 356 683 L 354 683 L 353 684 L 351 684 L 350 685 L 348 685 L 347 686 L 345 686 L 344 687 L 342 687 L 341 688 L 339 688 L 338 689 L 336 689 L 335 690 L 332 690 L 331 691 L 328 691 L 327 692 L 324 692 L 323 693 L 320 693 L 319 694 L 315 694 L 314 695 L 310 695 L 309 696 L 304 696 L 303 697 L 295 697 L 294 698 L 279 698 L 278 699 L 277 698 L 261 698 L 260 697 L 253 697 L 252 696 L 247 696 L 246 695 L 243 695 L 242 694 L 239 694 L 238 693 L 234 693 L 233 692 L 231 692 L 230 691 L 228 691 L 227 690 L 225 690 L 224 689 L 222 689 L 221 688 L 220 688 L 219 687 L 217 687 L 216 686 L 215 686 L 214 685 L 213 685 L 212 684 L 211 684 L 210 683 L 209 683 L 208 682 L 207 682 L 206 681 L 205 681 L 204 680 L 203 680 L 202 679 L 201 679 L 199 677 L 198 677 L 197 676 L 196 676 L 195 675 L 194 675 L 191 672 L 190 672 L 188 670 L 187 670 L 184 667 L 183 667 L 178 662 L 177 662 L 164 649 L 164 648 L 158 642 L 158 641 L 155 638 L 155 637 L 152 634 L 152 633 L 150 631 L 150 630 L 148 628 L 148 627 L 146 625 L 146 624 L 145 623 L 145 622 L 144 621 L 144 620 L 142 618 L 142 617 L 141 616 L 141 615 L 140 614 L 140 613 L 139 612 L 139 611 L 138 610 L 138 609 L 137 608 L 137 607 L 136 606 L 136 605 L 135 604 L 135 603 L 134 602 L 134 600 L 133 599 L 133 598 L 132 597 L 132 596 L 131 595 L 131 593 L 130 592 L 130 591 L 129 590 L 129 588 L 128 587 L 128 585 L 127 584 L 127 582 L 126 581 L 126 579 L 125 578 L 125 576 L 124 575 L 124 572 L 123 571 L 123 568 L 122 567 L 122 564 L 121 563 L 121 560 L 120 559 L 120 555 L 119 554 L 119 550 L 118 549 L 118 544 L 117 543 L 117 538 L 116 537 L 116 529 L 115 528 L 115 517 L 114 516 L 114 468 L 115 467 L 115 454 L 116 453 L 116 443 L 117 442 L 117 434 L 118 433 L 118 426 L 119 425 L 119 419 L 120 418 L 120 413 L 121 412 L 121 407 L 122 406 L 122 401 L 123 400 L 123 396 L 124 395 L 124 392 L 125 391 L 125 387 L 126 386 L 126 383 L 127 382 L 127 378 L 128 377 L 128 374 L 129 373 L 129 370 L 130 369 L 130 367 L 131 366 L 131 363 L 132 362 L 132 359 L 133 358 L 133 355 L 134 354 L 134 352 L 135 351 L 135 349 L 136 348 L 136 346 L 137 345 L 137 343 L 138 342 L 138 339 L 139 338 L 139 336 L 140 335 L 140 333 L 141 332 L 141 330 L 142 329 L 142 327 L 143 326 L 143 325 L 144 324 L 144 322 L 145 321 L 145 319 L 146 318 L 146 317 L 147 316 L 147 314 L 148 313 L 148 311 L 149 310 L 149 309 L 150 308 L 150 306 L 151 305 L 151 304 L 152 303 L 152 302 L 153 301 L 153 299 L 154 298 L 154 297 L 155 296 L 155 295 L 156 294 L 156 292 L 157 291 L 157 290 L 158 289 L 158 287 L 159 286 L 159 285 L 160 284 L 160 283 L 161 282 L 161 281 L 162 280 L 162 279 L 163 278 L 163 277 L 164 276 L 164 275 L 165 274 L 165 273 L 166 272 L 166 271 L 167 270 L 167 269 L 168 268 L 168 267 L 169 266 L 169 265 L 171 263 L 171 262 L 172 261 L 172 260 L 174 258 L 174 257 L 175 256 L 175 255 L 176 254 L 176 253 L 178 251 L 178 250 L 179 249 L 179 248 L 180 247 L 180 246 L 182 244 L 182 243 L 184 241 L 184 240 L 186 238 L 186 237 L 188 235 L 188 234 L 190 232 L 190 231 L 192 229 L 192 228 L 194 226 L 194 225 L 197 222 L 197 221 L 200 218 L 200 217 L 203 214 L 203 213 L 206 210 L 206 209 L 212 203 L 212 202 L 218 196 L 218 195 L 244 169 L 245 169 L 254 160 L 255 160 L 258 157 L 259 157 L 262 154 L 263 154 L 266 151 L 267 151 L 270 148 L 271 148 L 273 146 L 274 146 L 276 144 L 277 144 L 279 142 L 280 142 L 282 140 L 283 140 L 284 139 L 285 139 L 287 137 L 288 137 L 289 136 L 290 136 L 291 135 L 292 135 L 294 133 L 295 133 L 296 132 L 297 132 L 298 131 L 299 131 L 300 130 L 301 130 L 302 129 L 303 129 L 304 128 L 305 128 L 306 127 L 307 127 L 308 126 L 309 126 L 310 125 L 312 125 L 313 124 L 314 124 L 315 123 L 316 123 L 317 122 L 319 122 L 320 121 L 321 121 L 322 120 L 324 120 L 325 119 L 327 119 L 328 118 L 330 118 L 331 117 L 333 117 L 334 116 L 336 116 L 337 115 L 339 115 L 340 114 L 342 114 L 343 113 L 346 113 L 347 112 L 350 112 L 351 111 L 354 111 L 355 110 L 359 110 L 360 109 L 364 109 L 365 108 L 369 108 L 370 107 L 376 107 L 377 106 L 385 106 L 386 105 L 398 105 L 399 104 L 428 104 L 429 105 L 439 105 L 440 106 L 445 106 L 446 107 L 451 107 L 452 108 L 456 108 L 457 109 L 460 109 L 461 110 L 464 110 L 465 111 L 467 111 L 468 112 L 470 112 L 471 113 L 473 113 L 474 114 L 476 114 L 477 115 L 479 115 L 480 116 L 481 116 L 482 117 L 483 117 L 484 118 L 485 118 L 486 119 L 488 119 L 489 120 L 490 120 L 491 121 L 492 121 L 494 123 L 495 123 L 496 124 L 497 124 L 498 125 L 499 125 L 500 126 L 501 126 L 503 128 L 504 128 L 506 130 L 507 130 L 509 132 L 510 132 L 512 134 L 513 134 L 517 138 L 518 138 L 525 145 L 526 145 L 527 146 L 527 147 L 536 156 L 536 157 L 538 159 L 538 160 L 541 163 L 541 164 L 543 166 L 543 167 L 544 168 L 544 169 L 545 170 L 545 171 L 547 173 L 547 174 L 548 175 L 548 177 L 549 178 L 549 179 L 550 180 L 550 182 L 551 183 L 551 184 L 552 185 L 552 187 L 553 188 L 553 190 L 554 191 L 554 194 L 555 195 L 555 198 L 556 199 L 556 204 L 557 205 L 557 214 L 558 215 L 558 234 L 557 235 L 557 245 L 556 246 L 556 251 L 555 252 L 555 256 L 554 257 L 554 260 L 553 261 L 553 265 L 552 266 L 552 269 L 569 269 L 570 268 L 570 265 L 571 264 L 571 260 L 572 259 L 572 256 L 573 255 L 573 252 L 574 251 L 574 247 L 575 246 L 575 243 L 576 242 L 576 239 L 577 238 L 577 234 L 578 233 L 578 230 L 579 229 L 579 226 L 580 225 L 580 222 L 581 221 L 581 217 L 582 216 L 582 213 L 583 212 L 583 209 L 584 208 L 584 204 L 585 203 L 585 200 L 586 199 L 586 196 L 587 195 L 587 191 L 588 190 L 588 187 L 589 186 L 589 183 L 590 182 L 590 179 L 591 178 L 591 174 L 592 173 L 592 170 L 593 169 L 593 166 L 594 165 L 594 161 L 595 160 L 595 157 L 596 156 L 596 153 L 597 152 L 597 148 L 598 147 L 598 144 L 599 143 L 599 140 L 600 139 L 600 136 L 601 135 L 601 131 L 602 130 L 602 127 L 603 126 L 603 123 L 604 122 L 604 118 L 605 117 L 605 114 L 606 113 L 606 110 L 607 109 L 607 105 L 608 104 L 608 101 L 609 100 L 609 97 L 610 96 L 610 93 L 611 92 L 611 88 L 612 87 L 612 84 L 613 83 L 613 80 L 614 79 L 614 75 L 615 74 Z
  M 917 313 L 917 330 L 920 330 L 921 329 L 938 329 L 939 328 L 961 328 L 962 329 L 966 329 L 967 330 L 968 330 L 969 331 L 971 331 L 973 333 L 974 333 L 978 337 L 979 337 L 980 338 L 980 339 L 981 340 L 981 341 L 982 342 L 982 343 L 983 344 L 983 349 L 984 350 L 984 354 L 983 355 L 983 362 L 982 363 L 982 367 L 981 368 L 981 371 L 980 372 L 980 375 L 979 376 L 979 379 L 978 380 L 978 383 L 977 384 L 977 387 L 976 388 L 976 390 L 975 391 L 975 394 L 974 395 L 974 398 L 973 399 L 973 401 L 972 402 L 972 405 L 971 406 L 971 408 L 970 409 L 970 412 L 969 413 L 969 415 L 968 416 L 968 419 L 967 420 L 967 422 L 966 423 L 966 426 L 965 427 L 965 429 L 964 430 L 964 433 L 963 434 L 963 436 L 962 437 L 962 440 L 961 441 L 961 443 L 960 444 L 960 447 L 959 448 L 959 450 L 958 451 L 958 454 L 957 455 L 957 457 L 956 458 L 956 461 L 955 462 L 955 464 L 954 465 L 954 468 L 953 469 L 953 471 L 952 472 L 952 475 L 951 476 L 951 478 L 950 479 L 950 482 L 949 483 L 949 485 L 948 486 L 948 488 L 947 489 L 947 492 L 946 493 L 946 495 L 945 496 L 945 499 L 944 500 L 944 502 L 943 503 L 943 506 L 942 507 L 942 509 L 941 510 L 941 513 L 940 514 L 940 516 L 939 517 L 939 520 L 938 521 L 938 523 L 937 524 L 937 527 L 936 528 L 936 530 L 935 531 L 935 534 L 934 535 L 934 537 L 933 538 L 933 541 L 932 542 L 932 544 L 931 545 L 931 548 L 930 549 L 930 551 L 929 552 L 929 555 L 928 556 L 928 558 L 927 559 L 927 562 L 926 563 L 926 565 L 925 566 L 925 569 L 924 570 L 924 573 L 923 574 L 923 576 L 922 577 L 922 580 L 921 581 L 921 583 L 920 584 L 920 587 L 919 588 L 919 590 L 918 591 L 918 594 L 917 595 L 917 597 L 916 598 L 916 601 L 915 602 L 915 604 L 914 605 L 914 608 L 913 609 L 913 611 L 912 612 L 912 615 L 911 616 L 911 618 L 910 619 L 910 622 L 909 623 L 909 625 L 908 626 L 908 629 L 907 630 L 907 632 L 906 633 L 906 636 L 905 637 L 905 639 L 904 640 L 904 643 L 903 644 L 903 646 L 902 647 L 902 650 L 901 651 L 901 653 L 900 654 L 900 657 L 899 658 L 899 660 L 898 661 L 898 664 L 897 665 L 897 667 L 896 668 L 896 671 L 895 672 L 895 674 L 894 675 L 894 678 L 893 679 L 893 681 L 892 682 L 892 685 L 891 686 L 891 688 L 890 689 L 890 692 L 889 693 L 889 695 L 888 696 L 888 699 L 887 700 L 887 702 L 886 703 L 886 706 L 885 707 L 885 709 L 884 710 L 884 713 L 883 714 L 883 716 L 955 716 L 955 714 L 956 713 L 956 710 L 957 709 L 957 706 L 958 705 L 958 703 L 959 702 L 959 699 L 960 698 L 960 695 L 961 694 L 961 692 L 962 691 L 962 688 L 963 687 L 963 685 L 964 684 L 964 681 L 965 680 L 965 678 L 966 677 L 966 674 L 967 673 L 967 671 L 968 670 L 968 667 L 969 666 L 969 664 L 970 663 L 970 661 L 971 660 L 971 657 L 972 656 L 972 654 L 973 653 L 973 651 L 974 650 L 974 647 L 975 646 L 975 644 L 976 643 L 976 641 L 977 640 L 977 637 L 978 636 L 978 634 L 979 633 L 979 631 L 980 630 L 980 628 L 981 627 L 981 624 L 982 623 L 982 621 L 983 620 L 983 618 L 984 617 L 984 615 L 985 614 L 985 612 L 986 611 L 986 610 L 987 609 L 987 607 L 988 606 L 988 604 L 989 603 L 989 601 L 990 600 L 990 599 L 991 598 L 991 596 L 992 595 L 992 594 L 993 593 L 993 591 L 994 590 L 994 588 L 995 587 L 995 586 L 996 585 L 996 584 L 997 583 L 997 581 L 998 580 L 998 579 L 999 578 L 999 577 L 1000 576 L 1000 574 L 1001 573 L 1001 572 L 1002 571 L 1002 570 L 1003 569 L 1003 568 L 1004 567 L 1004 565 L 1005 564 L 1005 563 L 1006 562 L 1006 561 L 1007 560 L 1007 559 L 1008 558 L 1008 557 L 1009 556 L 1009 555 L 1010 554 L 1010 553 L 1011 552 L 1011 551 L 1013 549 L 1013 548 L 1014 547 L 1014 546 L 1015 545 L 1015 544 L 1016 543 L 1016 542 L 1017 541 L 1017 540 L 1019 538 L 1019 537 L 1020 536 L 1020 535 L 1021 534 L 1021 533 L 1023 531 L 1023 530 L 1024 529 L 1024 528 L 1026 526 L 1026 525 L 1027 524 L 1027 523 L 1029 521 L 1029 520 L 1030 519 L 1030 518 L 1032 516 L 1032 515 L 1034 513 L 1034 512 L 1035 511 L 1035 510 L 1037 508 L 1037 507 L 1039 505 L 1039 504 L 1040 503 L 1040 502 L 1043 499 L 1043 498 L 1045 496 L 1045 495 L 1047 493 L 1047 492 L 1048 491 L 1048 490 L 1051 487 L 1051 486 L 1053 484 L 1053 483 L 1055 481 L 1055 480 L 1058 477 L 1058 476 L 1060 474 L 1060 473 L 1063 470 L 1063 469 L 1065 467 L 1065 466 L 1067 464 L 1067 463 L 1070 460 L 1070 459 L 1072 457 L 1072 456 L 1075 453 L 1075 452 L 1078 449 L 1078 448 L 1081 445 L 1081 444 L 1085 440 L 1085 439 L 1088 436 L 1088 435 L 1092 431 L 1092 430 L 1097 425 L 1097 424 L 1102 419 L 1102 418 L 1110 410 L 1110 409 L 1143 376 L 1144 376 L 1148 372 L 1149 372 L 1154 367 L 1155 367 L 1159 363 L 1160 363 L 1163 360 L 1164 360 L 1167 357 L 1168 357 L 1170 355 L 1171 355 L 1173 353 L 1174 353 L 1176 351 L 1177 351 L 1178 350 L 1179 350 L 1181 348 L 1182 348 L 1183 347 L 1184 347 L 1185 346 L 1186 346 L 1187 345 L 1189 345 L 1190 344 L 1191 344 L 1192 343 L 1194 343 L 1195 342 L 1198 342 L 1199 341 L 1207 341 L 1208 342 L 1210 342 L 1212 344 L 1213 344 L 1214 345 L 1215 345 L 1219 349 L 1219 350 L 1221 352 L 1221 353 L 1222 354 L 1222 355 L 1223 356 L 1223 359 L 1224 360 L 1224 377 L 1223 378 L 1223 383 L 1222 384 L 1222 387 L 1221 388 L 1221 391 L 1220 392 L 1220 394 L 1219 395 L 1219 398 L 1218 399 L 1218 401 L 1217 402 L 1217 404 L 1216 405 L 1216 408 L 1215 409 L 1215 411 L 1214 412 L 1214 415 L 1213 416 L 1213 418 L 1212 419 L 1212 422 L 1211 423 L 1211 425 L 1210 426 L 1210 429 L 1209 430 L 1209 432 L 1208 433 L 1208 436 L 1207 437 L 1207 439 L 1206 440 L 1206 443 L 1205 444 L 1205 446 L 1204 447 L 1204 450 L 1203 451 L 1203 453 L 1202 454 L 1202 457 L 1201 458 L 1201 460 L 1200 461 L 1200 464 L 1199 465 L 1199 467 L 1198 468 L 1198 471 L 1197 472 L 1197 474 L 1196 475 L 1196 478 L 1195 479 L 1195 481 L 1194 482 L 1194 485 L 1193 486 L 1193 488 L 1192 489 L 1192 492 L 1191 493 L 1191 495 L 1190 496 L 1190 499 L 1189 500 L 1189 502 L 1188 503 L 1188 506 L 1187 507 L 1187 509 L 1186 510 L 1186 513 L 1185 514 L 1185 517 L 1184 518 L 1184 520 L 1183 521 L 1183 524 L 1182 525 L 1182 527 L 1181 528 L 1181 531 L 1180 532 L 1180 534 L 1179 535 L 1179 538 L 1178 539 L 1178 541 L 1177 542 L 1177 545 L 1176 546 L 1176 548 L 1175 549 L 1175 552 L 1174 553 L 1174 555 L 1173 556 L 1173 559 L 1172 560 L 1172 562 L 1171 563 L 1171 566 L 1170 567 L 1170 569 L 1169 570 L 1169 573 L 1168 574 L 1168 576 L 1167 577 L 1167 580 L 1166 581 L 1166 583 L 1165 584 L 1165 587 L 1164 588 L 1164 590 L 1163 591 L 1163 594 L 1162 595 L 1162 597 L 1161 598 L 1161 601 L 1160 602 L 1160 604 L 1159 605 L 1159 608 L 1158 609 L 1158 611 L 1157 612 L 1157 615 L 1156 616 L 1156 618 L 1155 619 L 1155 622 L 1154 623 L 1154 626 L 1153 627 L 1153 629 L 1152 630 L 1152 632 L 1151 633 L 1151 636 L 1150 637 L 1150 640 L 1149 641 L 1149 643 L 1148 644 L 1148 648 L 1147 649 L 1147 652 L 1146 653 L 1146 657 L 1145 658 L 1145 662 L 1144 663 L 1144 668 L 1143 669 L 1143 678 L 1142 679 L 1142 687 L 1143 688 L 1143 696 L 1144 697 L 1144 700 L 1145 701 L 1145 704 L 1146 705 L 1146 706 L 1147 707 L 1147 708 L 1148 709 L 1148 710 L 1150 712 L 1150 713 L 1153 716 L 1153 717 L 1154 717 L 1159 722 L 1160 722 L 1161 723 L 1162 723 L 1164 725 L 1166 725 L 1167 726 L 1170 726 L 1171 727 L 1187 727 L 1188 726 L 1193 726 L 1194 725 L 1196 725 L 1197 724 L 1200 724 L 1201 723 L 1203 723 L 1204 722 L 1206 722 L 1207 721 L 1208 721 L 1209 720 L 1211 720 L 1212 719 L 1213 719 L 1214 718 L 1215 718 L 1217 716 L 1218 716 L 1219 715 L 1220 715 L 1221 714 L 1222 714 L 1224 712 L 1225 712 L 1226 711 L 1227 711 L 1229 709 L 1230 709 L 1233 706 L 1234 706 L 1236 704 L 1237 704 L 1242 699 L 1243 699 L 1249 693 L 1250 693 L 1259 684 L 1260 684 L 1278 666 L 1278 665 L 1286 657 L 1286 656 L 1292 650 L 1292 649 L 1297 644 L 1297 643 L 1300 640 L 1300 639 L 1303 636 L 1303 635 L 1305 633 L 1429 633 L 1430 632 L 1430 631 L 1431 630 L 1431 629 L 1433 627 L 1433 626 L 1434 625 L 1434 624 L 1436 622 L 1436 621 L 1437 620 L 1437 619 L 1439 617 L 1439 616 L 1440 615 L 1440 614 L 1442 612 L 1442 611 L 1443 610 L 1443 609 L 1445 607 L 1445 606 L 1446 605 L 1446 604 L 1448 602 L 1448 601 L 1450 599 L 1450 598 L 1451 597 L 1451 596 L 1453 594 L 1453 593 L 1454 592 L 1454 591 L 1456 589 L 1456 588 L 1457 587 L 1457 586 L 1459 584 L 1459 583 L 1460 582 L 1460 581 L 1462 579 L 1462 578 L 1463 577 L 1463 576 L 1465 574 L 1465 573 L 1466 572 L 1466 571 L 1468 569 L 1468 568 L 1469 567 L 1469 566 L 1471 564 L 1471 563 L 1472 562 L 1472 561 L 1474 559 L 1474 558 L 1475 557 L 1475 556 L 1477 554 L 1477 553 L 1478 552 L 1478 551 L 1480 549 L 1480 548 L 1481 547 L 1481 546 L 1483 544 L 1483 543 L 1484 542 L 1484 541 L 1486 539 L 1486 538 L 1487 537 L 1487 536 L 1489 534 L 1489 533 L 1490 532 L 1490 531 L 1492 529 L 1492 528 L 1493 527 L 1493 526 L 1495 524 L 1495 523 L 1496 522 L 1496 521 L 1498 519 L 1498 518 L 1499 517 L 1499 516 L 1501 514 L 1501 513 L 1502 512 L 1502 511 L 1504 509 L 1504 508 L 1505 507 L 1505 506 L 1507 504 L 1507 503 L 1509 501 L 1509 500 L 1510 499 L 1510 498 L 1512 496 L 1512 495 L 1513 494 L 1513 493 L 1515 491 L 1515 490 L 1516 489 L 1516 488 L 1518 486 L 1518 485 L 1519 484 L 1519 483 L 1521 481 L 1521 480 L 1522 479 L 1522 478 L 1524 476 L 1524 475 L 1525 474 L 1525 473 L 1527 471 L 1527 470 L 1528 469 L 1528 468 L 1530 466 L 1530 465 L 1531 464 L 1531 463 L 1533 461 L 1533 460 L 1534 459 L 1534 458 L 1536 456 L 1536 455 L 1537 454 L 1537 453 L 1539 451 L 1539 450 L 1540 449 L 1540 448 L 1542 446 L 1542 445 L 1543 444 L 1543 443 L 1545 441 L 1545 440 L 1546 439 L 1546 438 L 1548 436 L 1548 435 L 1549 434 L 1549 433 L 1552 430 L 1556 430 L 1557 431 L 1557 432 L 1559 434 L 1559 435 L 1560 436 L 1560 437 L 1562 439 L 1562 440 L 1563 441 L 1563 442 L 1565 444 L 1565 445 L 1567 447 L 1567 448 L 1568 449 L 1568 450 L 1570 452 L 1570 453 L 1571 454 L 1571 455 L 1573 457 L 1573 458 L 1574 459 L 1574 460 L 1576 462 L 1576 463 L 1578 465 L 1578 466 L 1579 467 L 1579 468 L 1581 470 L 1581 471 L 1582 472 L 1582 473 L 1584 475 L 1584 476 L 1585 477 L 1585 478 L 1587 480 L 1587 481 L 1589 483 L 1589 484 L 1590 485 L 1590 486 L 1592 488 L 1592 489 L 1593 490 L 1593 491 L 1595 493 L 1595 494 L 1596 495 L 1596 496 L 1598 498 L 1598 499 L 1600 501 L 1600 502 L 1601 503 L 1601 504 L 1603 506 L 1603 507 L 1604 508 L 1604 509 L 1606 511 L 1606 512 L 1607 513 L 1607 514 L 1609 516 L 1609 517 L 1611 519 L 1611 520 L 1612 521 L 1612 522 L 1614 524 L 1614 525 L 1615 526 L 1615 527 L 1617 529 L 1617 530 L 1618 531 L 1618 532 L 1620 534 L 1620 535 L 1621 536 L 1621 537 L 1623 539 L 1623 540 L 1625 542 L 1625 543 L 1626 544 L 1626 545 L 1628 547 L 1628 548 L 1629 549 L 1629 550 L 1631 552 L 1631 553 L 1632 554 L 1632 555 L 1634 557 L 1634 558 L 1636 560 L 1636 561 L 1637 562 L 1637 563 L 1639 565 L 1639 566 L 1640 567 L 1640 568 L 1642 570 L 1642 571 L 1643 572 L 1643 573 L 1645 575 L 1645 576 L 1646 577 L 1646 578 L 1648 580 L 1648 581 L 1650 583 L 1650 584 L 1651 585 L 1651 586 L 1653 588 L 1653 589 L 1654 590 L 1654 591 L 1656 593 L 1656 594 L 1657 595 L 1657 596 L 1659 598 L 1659 599 L 1661 601 L 1661 602 L 1662 603 L 1662 604 L 1664 606 L 1664 607 L 1665 608 L 1665 609 L 1667 611 L 1667 612 L 1668 613 L 1668 614 L 1670 616 L 1670 617 L 1672 619 L 1672 620 L 1673 621 L 1673 622 L 1675 624 L 1675 625 L 1676 626 L 1676 627 L 1678 629 L 1678 630 L 1679 631 L 1679 632 L 1680 633 L 1824 633 L 1824 632 L 1823 631 L 1823 630 L 1821 628 L 1821 627 L 1819 625 L 1819 624 L 1817 622 L 1817 621 L 1815 619 L 1815 618 L 1813 616 L 1813 615 L 1811 613 L 1811 612 L 1809 610 L 1809 609 L 1808 608 L 1808 607 L 1806 605 L 1806 604 L 1804 602 L 1804 601 L 1802 599 L 1802 598 L 1800 596 L 1800 595 L 1798 593 L 1798 592 L 1796 590 L 1796 589 L 1794 587 L 1794 586 L 1793 585 L 1793 584 L 1791 582 L 1791 581 L 1789 579 L 1789 578 L 1787 576 L 1787 575 L 1785 573 L 1785 572 L 1783 570 L 1783 569 L 1781 567 L 1781 566 L 1780 565 L 1780 564 L 1778 562 L 1778 561 L 1776 559 L 1776 558 L 1774 556 L 1774 555 L 1772 553 L 1772 552 L 1770 550 L 1770 549 L 1768 547 L 1768 546 L 1766 544 L 1766 543 L 1765 542 L 1765 541 L 1763 539 L 1763 538 L 1761 536 L 1761 535 L 1759 533 L 1759 532 L 1757 530 L 1757 529 L 1755 527 L 1755 526 L 1753 524 L 1753 523 L 1751 521 L 1751 520 L 1750 519 L 1750 518 L 1748 516 L 1748 515 L 1746 513 L 1746 512 L 1744 510 L 1744 509 L 1742 507 L 1742 506 L 1740 504 L 1740 503 L 1738 501 L 1738 500 L 1737 499 L 1737 498 L 1735 496 L 1735 495 L 1733 493 L 1733 492 L 1731 490 L 1731 489 L 1729 487 L 1729 486 L 1727 484 L 1727 483 L 1725 481 L 1725 480 L 1723 478 L 1723 477 L 1722 476 L 1722 475 L 1720 473 L 1720 472 L 1718 470 L 1718 469 L 1716 467 L 1716 466 L 1714 464 L 1714 463 L 1712 461 L 1712 460 L 1710 458 L 1710 457 L 1709 456 L 1709 455 L 1707 453 L 1707 452 L 1705 450 L 1705 449 L 1703 447 L 1703 446 L 1701 444 L 1701 443 L 1699 441 L 1699 440 L 1697 438 L 1697 437 L 1695 435 L 1695 434 L 1694 433 L 1694 432 L 1692 430 L 1692 429 L 1690 427 L 1690 426 L 1688 424 L 1688 423 L 1686 421 L 1686 420 L 1684 418 L 1684 417 L 1682 415 L 1682 414 L 1681 413 L 1681 412 L 1679 410 L 1679 409 L 1677 407 L 1677 406 L 1675 404 L 1675 403 L 1673 401 L 1673 400 L 1671 398 L 1671 397 L 1669 395 L 1669 394 L 1667 392 L 1667 391 L 1666 390 L 1666 389 L 1664 387 L 1664 386 L 1662 384 L 1662 383 L 1660 381 L 1660 380 L 1658 378 L 1658 377 L 1656 375 L 1656 374 L 1654 372 L 1654 371 L 1653 370 L 1653 369 L 1651 367 L 1651 366 L 1649 364 L 1649 363 L 1647 361 L 1647 360 L 1645 358 L 1645 357 L 1643 355 L 1643 354 L 1641 352 L 1641 351 L 1639 349 L 1639 348 L 1638 347 L 1638 346 L 1636 344 L 1636 343 L 1634 341 L 1634 340 L 1632 338 L 1632 337 L 1633 336 L 1633 335 L 1635 333 L 1635 332 L 1637 330 L 1637 329 L 1638 328 L 1638 327 L 1640 325 L 1640 324 L 1642 322 L 1642 321 L 1644 319 L 1644 318 L 1646 316 L 1646 315 L 1648 313 L 1648 312 L 1650 310 L 1650 309 L 1651 308 L 1651 307 L 1653 305 L 1653 304 L 1655 302 L 1655 301 L 1657 299 L 1657 298 L 1659 296 L 1659 295 L 1661 293 L 1661 292 L 1662 291 L 1662 290 L 1664 288 L 1664 287 L 1666 285 L 1666 284 L 1668 282 L 1668 281 L 1670 279 L 1670 278 L 1672 276 L 1672 275 L 1673 274 L 1673 273 L 1675 271 L 1675 270 L 1677 268 L 1677 267 L 1679 265 L 1679 264 L 1681 262 L 1681 261 L 1683 259 L 1683 258 L 1685 256 L 1685 255 L 1686 254 L 1686 253 L 1688 251 L 1688 250 L 1690 248 L 1690 247 L 1692 245 L 1692 244 L 1694 242 L 1694 241 L 1696 239 L 1696 238 L 1697 237 L 1697 236 L 1699 234 L 1699 233 L 1701 231 L 1701 230 L 1703 228 L 1703 227 L 1705 225 L 1705 224 L 1707 222 L 1707 221 L 1709 219 L 1709 218 L 1710 217 L 1710 216 L 1712 214 L 1712 213 L 1714 211 L 1714 210 L 1716 208 L 1716 207 L 1718 205 L 1718 204 L 1720 202 L 1720 201 L 1721 200 L 1721 199 L 1723 197 L 1723 196 L 1725 194 L 1725 193 L 1727 191 L 1727 190 L 1729 188 L 1729 187 L 1731 185 L 1731 184 L 1732 183 L 1732 182 L 1734 180 L 1734 179 L 1736 177 L 1736 176 L 1738 174 L 1738 173 L 1740 171 L 1740 170 L 1742 168 L 1742 167 L 1744 165 L 1744 164 L 1745 163 L 1745 162 L 1747 160 L 1747 159 L 1749 157 L 1749 156 L 1751 154 L 1751 153 L 1753 151 L 1753 150 L 1755 148 L 1755 147 L 1756 146 L 1756 145 L 1758 143 L 1758 142 L 1760 140 L 1760 139 L 1762 137 L 1762 136 L 1764 134 L 1764 133 L 1766 131 L 1766 130 L 1768 128 L 1768 127 L 1769 126 L 1769 125 L 1771 123 L 1771 122 L 1773 120 L 1773 119 L 1775 117 L 1775 116 L 1777 114 L 1777 113 L 1779 111 L 1779 110 L 1780 109 L 1780 108 L 1782 106 L 1782 105 L 1784 103 L 1784 102 L 1786 100 L 1786 99 L 1788 97 L 1788 96 L 1790 94 L 1790 93 L 1791 92 L 1791 91 L 1793 89 L 1793 88 L 1795 86 L 1795 85 L 1797 83 L 1797 82 L 1799 80 L 1799 79 L 1801 77 L 1801 76 L 1803 74 L 1803 73 L 1804 72 L 1804 71 L 1806 69 L 1806 68 L 1808 66 L 1808 65 L 1810 63 L 1810 62 L 1812 60 L 1812 59 L 1814 57 L 1814 56 L 1815 55 L 1815 54 L 1817 52 L 1817 51 L 1819 49 L 1819 48 L 1821 46 L 1821 45 L 1823 43 L 1823 41 L 1681 41 L 1679 43 L 1679 44 L 1677 46 L 1677 47 L 1676 48 L 1676 49 L 1674 51 L 1674 52 L 1673 53 L 1673 54 L 1671 56 L 1671 57 L 1669 59 L 1669 60 L 1668 61 L 1668 62 L 1666 64 L 1666 65 L 1665 66 L 1665 67 L 1663 69 L 1663 70 L 1662 71 L 1662 72 L 1660 74 L 1660 75 L 1658 77 L 1658 78 L 1657 79 L 1657 80 L 1655 82 L 1655 83 L 1654 84 L 1654 85 L 1652 87 L 1652 88 L 1650 90 L 1650 91 L 1649 92 L 1649 93 L 1647 95 L 1647 96 L 1646 97 L 1646 98 L 1644 100 L 1644 101 L 1643 102 L 1643 103 L 1641 105 L 1641 106 L 1639 108 L 1639 109 L 1638 110 L 1638 111 L 1636 113 L 1636 114 L 1635 115 L 1635 116 L 1633 118 L 1633 119 L 1631 121 L 1631 122 L 1630 123 L 1630 124 L 1628 126 L 1628 127 L 1627 128 L 1627 129 L 1625 131 L 1625 132 L 1624 133 L 1624 134 L 1622 136 L 1622 137 L 1620 139 L 1620 140 L 1619 141 L 1619 142 L 1617 144 L 1617 145 L 1616 146 L 1616 147 L 1614 149 L 1614 150 L 1613 151 L 1613 152 L 1611 154 L 1611 155 L 1609 157 L 1609 158 L 1608 159 L 1608 160 L 1606 162 L 1606 163 L 1605 164 L 1605 165 L 1603 167 L 1603 168 L 1601 170 L 1601 171 L 1600 172 L 1600 173 L 1598 175 L 1598 176 L 1597 177 L 1597 178 L 1595 180 L 1595 181 L 1594 182 L 1594 183 L 1592 185 L 1592 186 L 1590 188 L 1590 189 L 1589 190 L 1589 191 L 1587 193 L 1587 194 L 1586 195 L 1586 196 L 1584 198 L 1584 199 L 1582 201 L 1582 202 L 1581 203 L 1581 204 L 1579 206 L 1579 207 L 1578 208 L 1578 209 L 1576 211 L 1576 212 L 1575 213 L 1575 214 L 1573 216 L 1573 217 L 1571 219 L 1571 220 L 1570 221 L 1570 222 L 1568 224 L 1568 225 L 1567 226 L 1567 227 L 1565 229 L 1565 230 L 1563 232 L 1563 233 L 1562 234 L 1562 235 L 1560 237 L 1560 238 L 1559 239 L 1559 240 L 1557 242 L 1557 243 L 1556 244 L 1552 244 L 1549 241 L 1549 240 L 1548 239 L 1548 238 L 1546 236 L 1546 235 L 1545 234 L 1545 233 L 1543 231 L 1543 230 L 1542 229 L 1542 228 L 1540 226 L 1540 225 L 1539 224 L 1539 223 L 1537 221 L 1537 220 L 1536 219 L 1536 218 L 1534 216 L 1534 215 L 1533 214 L 1533 213 L 1531 211 L 1531 210 L 1529 208 L 1529 207 L 1528 206 L 1528 205 L 1526 203 L 1526 202 L 1525 201 L 1525 200 L 1523 198 L 1523 197 L 1522 196 L 1522 195 L 1520 193 L 1520 192 L 1519 191 L 1519 190 L 1517 188 L 1517 187 L 1516 186 L 1516 185 L 1514 183 L 1514 182 L 1513 181 L 1513 180 L 1511 178 L 1511 177 L 1510 176 L 1510 175 L 1508 173 L 1508 172 L 1506 170 L 1506 169 L 1505 168 L 1505 167 L 1503 165 L 1503 164 L 1502 163 L 1502 162 L 1500 160 L 1500 159 L 1499 158 L 1499 157 L 1497 155 L 1497 154 L 1496 153 L 1496 152 L 1494 150 L 1494 149 L 1493 148 L 1493 147 L 1491 145 L 1491 144 L 1490 143 L 1490 142 L 1488 140 L 1488 139 L 1487 138 L 1487 137 L 1485 135 L 1485 134 L 1484 133 L 1484 132 L 1482 130 L 1482 129 L 1481 128 L 1481 127 L 1479 125 L 1479 124 L 1478 123 L 1478 122 L 1476 120 L 1476 119 L 1474 117 L 1474 116 L 1473 115 L 1473 114 L 1471 112 L 1471 111 L 1470 110 L 1470 109 L 1468 107 L 1468 106 L 1467 105 L 1467 104 L 1465 102 L 1465 101 L 1464 100 L 1464 99 L 1462 97 L 1462 96 L 1461 95 L 1461 94 L 1459 92 L 1459 91 L 1458 90 L 1458 89 L 1456 87 L 1456 86 L 1455 85 L 1455 84 L 1453 82 L 1453 81 L 1452 80 L 1452 79 L 1450 77 L 1450 76 L 1449 75 L 1449 74 L 1447 72 L 1447 71 L 1445 69 L 1445 68 L 1444 67 L 1444 66 L 1442 64 L 1442 63 L 1441 62 L 1441 61 L 1439 59 L 1439 58 L 1438 57 L 1438 56 L 1436 54 L 1436 53 L 1435 52 L 1435 51 L 1433 49 L 1433 48 L 1432 47 L 1432 46 L 1430 44 L 1430 43 L 1428 41 L 1285 41 L 1285 43 L 1287 45 L 1287 46 L 1289 48 L 1289 49 L 1291 51 L 1291 52 L 1293 54 L 1293 55 L 1294 56 L 1294 57 L 1296 59 L 1296 60 L 1298 62 L 1298 63 L 1300 65 L 1300 66 L 1302 68 L 1302 69 L 1303 70 L 1303 71 L 1305 73 L 1305 74 L 1307 76 L 1307 77 L 1309 79 L 1309 80 L 1311 82 L 1311 83 L 1312 84 L 1312 85 L 1314 87 L 1314 88 L 1316 90 L 1316 91 L 1318 93 L 1318 94 L 1320 96 L 1320 97 L 1321 98 L 1321 99 L 1323 101 L 1323 102 L 1325 104 L 1325 105 L 1327 107 L 1327 108 L 1329 110 L 1329 111 L 1330 112 L 1330 113 L 1332 115 L 1332 116 L 1334 118 L 1334 119 L 1336 121 L 1336 122 L 1338 124 L 1338 125 L 1339 126 L 1339 127 L 1341 129 L 1341 130 L 1343 132 L 1343 133 L 1345 135 L 1345 136 L 1347 138 L 1347 139 L 1349 141 L 1349 142 L 1350 143 L 1350 144 L 1352 146 L 1352 147 L 1354 149 L 1354 150 L 1356 152 L 1356 153 L 1358 155 L 1358 156 L 1359 157 L 1359 158 L 1361 160 L 1361 161 L 1363 163 L 1363 164 L 1365 166 L 1365 167 L 1367 169 L 1367 170 L 1368 171 L 1368 172 L 1370 174 L 1370 175 L 1372 177 L 1372 178 L 1374 180 L 1374 181 L 1376 183 L 1376 184 L 1377 185 L 1377 186 L 1379 188 L 1379 189 L 1381 191 L 1381 192 L 1383 194 L 1383 195 L 1385 197 L 1385 198 L 1386 199 L 1386 200 L 1388 202 L 1388 203 L 1390 205 L 1390 206 L 1392 208 L 1392 209 L 1394 211 L 1394 212 L 1395 213 L 1395 214 L 1397 216 L 1397 217 L 1399 219 L 1399 220 L 1401 222 L 1401 223 L 1403 225 L 1403 226 L 1404 227 L 1404 228 L 1406 230 L 1406 231 L 1408 233 L 1408 234 L 1410 236 L 1410 237 L 1412 239 L 1412 240 L 1413 241 L 1413 242 L 1415 244 L 1415 245 L 1417 247 L 1417 248 L 1419 250 L 1419 251 L 1421 253 L 1421 254 L 1423 256 L 1423 257 L 1424 258 L 1424 259 L 1426 261 L 1426 262 L 1428 264 L 1428 265 L 1430 267 L 1430 268 L 1432 270 L 1432 271 L 1433 272 L 1433 273 L 1435 275 L 1435 276 L 1437 278 L 1437 279 L 1439 281 L 1439 282 L 1441 284 L 1441 285 L 1442 286 L 1442 287 L 1444 289 L 1444 290 L 1446 292 L 1446 293 L 1448 295 L 1448 296 L 1450 298 L 1450 299 L 1451 300 L 1451 301 L 1453 303 L 1453 304 L 1455 306 L 1455 307 L 1457 309 L 1457 310 L 1459 312 L 1459 313 L 1460 314 L 1460 315 L 1462 317 L 1462 318 L 1464 320 L 1464 321 L 1466 323 L 1466 324 L 1468 326 L 1468 327 L 1469 328 L 1469 329 L 1471 331 L 1471 332 L 1473 334 L 1473 335 L 1475 337 L 1474 338 L 1474 339 L 1472 341 L 1472 342 L 1470 344 L 1470 345 L 1468 347 L 1468 348 L 1467 349 L 1467 350 L 1465 352 L 1465 353 L 1463 355 L 1463 356 L 1461 358 L 1461 359 L 1459 361 L 1459 362 L 1458 363 L 1458 364 L 1456 366 L 1456 367 L 1454 369 L 1454 370 L 1452 372 L 1452 373 L 1450 375 L 1450 376 L 1448 378 L 1448 379 L 1447 380 L 1447 381 L 1445 383 L 1445 384 L 1443 386 L 1443 387 L 1441 389 L 1441 390 L 1439 392 L 1439 393 L 1438 394 L 1438 395 L 1436 397 L 1436 398 L 1434 400 L 1434 401 L 1432 403 L 1432 404 L 1430 406 L 1430 407 L 1428 409 L 1428 410 L 1427 411 L 1427 412 L 1425 414 L 1425 415 L 1423 417 L 1423 418 L 1421 420 L 1421 421 L 1419 423 L 1419 424 L 1417 426 L 1417 427 L 1416 428 L 1416 429 L 1414 431 L 1414 432 L 1412 434 L 1412 435 L 1410 437 L 1410 438 L 1408 440 L 1408 441 L 1407 442 L 1407 443 L 1405 445 L 1405 446 L 1403 448 L 1403 449 L 1401 451 L 1401 452 L 1399 454 L 1399 455 L 1397 457 L 1397 458 L 1396 459 L 1396 460 L 1394 462 L 1394 463 L 1392 465 L 1392 466 L 1390 468 L 1390 469 L 1388 471 L 1388 472 L 1386 474 L 1386 475 L 1385 476 L 1385 477 L 1383 479 L 1383 480 L 1381 482 L 1381 483 L 1379 485 L 1379 486 L 1377 488 L 1377 489 L 1376 490 L 1376 491 L 1374 493 L 1374 494 L 1372 496 L 1372 497 L 1370 499 L 1370 500 L 1368 502 L 1368 503 L 1366 505 L 1366 506 L 1365 507 L 1365 508 L 1363 510 L 1363 511 L 1361 513 L 1361 514 L 1359 516 L 1359 517 L 1357 519 L 1357 520 L 1356 521 L 1356 522 L 1354 524 L 1354 525 L 1352 527 L 1352 528 L 1350 530 L 1350 531 L 1348 533 L 1348 534 L 1346 536 L 1346 537 L 1345 538 L 1345 539 L 1343 541 L 1343 542 L 1341 544 L 1341 545 L 1339 547 L 1339 548 L 1337 550 L 1337 551 L 1335 553 L 1335 554 L 1334 555 L 1334 556 L 1332 558 L 1332 559 L 1330 561 L 1330 562 L 1328 564 L 1328 565 L 1326 567 L 1326 568 L 1325 569 L 1325 570 L 1323 572 L 1323 573 L 1321 575 L 1321 576 L 1319 578 L 1319 579 L 1317 581 L 1317 582 L 1315 584 L 1315 585 L 1314 586 L 1314 587 L 1312 589 L 1312 590 L 1310 592 L 1310 593 L 1308 595 L 1308 596 L 1306 598 L 1306 599 L 1304 601 L 1304 602 L 1303 603 L 1303 604 L 1301 606 L 1301 607 L 1299 609 L 1299 610 L 1297 612 L 1297 613 L 1295 615 L 1295 616 L 1294 617 L 1294 618 L 1292 620 L 1292 621 L 1289 624 L 1289 625 L 1285 629 L 1285 630 L 1280 635 L 1280 636 L 1270 646 L 1270 647 L 1254 663 L 1253 663 L 1248 668 L 1247 668 L 1244 671 L 1243 671 L 1241 673 L 1240 673 L 1239 674 L 1238 674 L 1236 676 L 1234 676 L 1233 677 L 1227 677 L 1226 676 L 1225 676 L 1224 675 L 1223 675 L 1219 671 L 1219 669 L 1218 668 L 1218 666 L 1217 665 L 1217 655 L 1218 654 L 1218 649 L 1219 648 L 1219 644 L 1220 643 L 1220 639 L 1221 638 L 1221 635 L 1222 634 L 1222 631 L 1223 630 L 1223 627 L 1224 626 L 1224 624 L 1225 623 L 1225 620 L 1226 619 L 1226 616 L 1227 615 L 1227 613 L 1228 612 L 1228 610 L 1229 609 L 1229 606 L 1230 605 L 1230 603 L 1231 602 L 1231 599 L 1232 598 L 1232 596 L 1233 595 L 1233 593 L 1234 592 L 1234 589 L 1235 588 L 1235 586 L 1236 585 L 1236 582 L 1237 581 L 1237 579 L 1238 578 L 1238 576 L 1239 575 L 1239 572 L 1240 571 L 1240 569 L 1241 568 L 1241 565 L 1242 564 L 1242 562 L 1243 561 L 1243 558 L 1244 557 L 1244 555 L 1245 554 L 1245 552 L 1246 551 L 1246 548 L 1247 547 L 1247 545 L 1248 544 L 1248 541 L 1249 540 L 1249 538 L 1250 537 L 1250 535 L 1251 534 L 1251 531 L 1252 530 L 1252 528 L 1253 527 L 1253 524 L 1254 523 L 1254 521 L 1255 520 L 1255 517 L 1256 516 L 1256 514 L 1257 513 L 1257 511 L 1258 510 L 1258 507 L 1259 506 L 1259 504 L 1260 503 L 1260 500 L 1261 499 L 1261 497 L 1262 496 L 1262 494 L 1263 493 L 1263 490 L 1264 489 L 1264 487 L 1265 486 L 1265 483 L 1266 482 L 1266 480 L 1267 479 L 1267 476 L 1268 475 L 1268 473 L 1269 472 L 1269 469 L 1270 468 L 1270 466 L 1271 465 L 1271 463 L 1272 462 L 1272 459 L 1273 458 L 1273 456 L 1274 455 L 1274 452 L 1275 451 L 1275 449 L 1276 448 L 1276 446 L 1277 445 L 1277 442 L 1278 441 L 1278 439 L 1279 438 L 1279 435 L 1280 434 L 1280 432 L 1281 431 L 1281 429 L 1282 428 L 1282 425 L 1283 424 L 1283 422 L 1284 421 L 1284 418 L 1285 417 L 1285 414 L 1286 413 L 1286 411 L 1287 410 L 1287 407 L 1288 406 L 1288 403 L 1289 402 L 1289 399 L 1290 398 L 1290 394 L 1291 393 L 1291 390 L 1292 389 L 1292 385 L 1293 384 L 1293 380 L 1294 379 L 1294 374 L 1295 373 L 1295 368 L 1296 367 L 1296 360 L 1297 359 L 1297 335 L 1296 334 L 1296 329 L 1295 328 L 1295 325 L 1294 324 L 1294 322 L 1293 321 L 1293 319 L 1292 318 L 1292 317 L 1291 316 L 1291 315 L 1290 314 L 1290 313 L 1288 311 L 1288 310 L 1286 308 L 1286 307 L 1279 300 L 1278 300 L 1275 297 L 1274 297 L 1273 296 L 1272 296 L 1271 295 L 1270 295 L 1269 294 L 1268 294 L 1267 293 L 1265 293 L 1264 292 L 1263 292 L 1262 291 L 1257 291 L 1256 290 L 1235 290 L 1234 291 L 1228 291 L 1227 292 L 1224 292 L 1223 293 L 1220 293 L 1219 294 L 1217 294 L 1216 295 L 1214 295 L 1213 296 L 1211 296 L 1210 297 L 1208 297 L 1207 298 L 1206 298 L 1205 299 L 1204 299 L 1203 300 L 1201 300 L 1200 301 L 1199 301 L 1198 302 L 1197 302 L 1196 303 L 1195 303 L 1193 305 L 1192 305 L 1191 306 L 1190 306 L 1189 307 L 1188 307 L 1187 308 L 1186 308 L 1184 310 L 1183 310 L 1181 312 L 1180 312 L 1179 313 L 1178 313 L 1175 316 L 1174 316 L 1172 318 L 1171 318 L 1168 321 L 1167 321 L 1164 324 L 1163 324 L 1159 328 L 1158 328 L 1152 334 L 1151 334 L 1118 367 L 1118 368 L 1110 376 L 1110 377 L 1103 384 L 1103 385 L 1098 390 L 1098 391 L 1093 396 L 1093 397 L 1089 401 L 1089 402 L 1086 405 L 1086 406 L 1082 410 L 1082 411 L 1078 415 L 1078 416 L 1075 419 L 1075 420 L 1072 423 L 1072 424 L 1070 426 L 1070 427 L 1067 430 L 1067 431 L 1064 434 L 1064 435 L 1062 437 L 1062 438 L 1059 441 L 1059 442 L 1057 444 L 1057 445 L 1055 447 L 1055 448 L 1052 451 L 1052 452 L 1050 454 L 1050 455 L 1048 457 L 1048 458 L 1046 460 L 1046 461 L 1044 463 L 1044 464 L 1042 466 L 1042 467 L 1041 468 L 1041 469 L 1038 472 L 1038 473 L 1036 475 L 1036 476 L 1034 478 L 1034 479 L 1033 480 L 1033 481 L 1031 483 L 1031 484 L 1029 486 L 1029 487 L 1028 488 L 1028 489 L 1026 491 L 1026 492 L 1024 494 L 1024 495 L 1023 496 L 1023 497 L 1021 499 L 1021 500 L 1019 502 L 1019 503 L 1018 504 L 1018 505 L 1017 506 L 1015 504 L 1016 503 L 1016 501 L 1017 500 L 1017 498 L 1018 497 L 1018 494 L 1019 493 L 1019 491 L 1020 490 L 1020 487 L 1021 486 L 1021 484 L 1022 483 L 1022 480 L 1023 479 L 1023 477 L 1024 476 L 1024 473 L 1025 472 L 1025 469 L 1026 468 L 1026 466 L 1027 465 L 1027 463 L 1028 462 L 1028 459 L 1029 458 L 1029 456 L 1030 455 L 1030 452 L 1031 451 L 1031 449 L 1032 448 L 1032 445 L 1033 444 L 1033 442 L 1034 441 L 1034 438 L 1035 437 L 1035 435 L 1036 434 L 1036 431 L 1037 430 L 1037 428 L 1038 427 L 1038 424 L 1039 423 L 1039 421 L 1040 420 L 1040 417 L 1041 416 L 1041 414 L 1042 413 L 1042 410 L 1043 409 L 1043 406 L 1044 405 L 1044 403 L 1045 402 L 1045 400 L 1046 399 L 1046 396 L 1047 395 L 1047 393 L 1048 392 L 1048 389 L 1049 388 L 1049 386 L 1050 385 L 1050 382 L 1051 381 L 1051 379 L 1052 378 L 1052 375 L 1053 374 L 1053 372 L 1054 371 L 1054 368 L 1055 367 L 1055 365 L 1056 364 L 1056 361 L 1057 360 L 1057 358 L 1058 357 L 1058 354 L 1059 353 L 1059 351 L 1060 350 L 1060 347 L 1061 346 L 1061 344 L 1062 343 L 1062 340 L 1063 339 L 1063 337 L 1064 336 L 1064 334 L 1065 333 L 1065 330 L 1066 329 L 1066 327 L 1067 326 L 1067 323 L 1068 322 L 1068 320 L 1069 319 L 1069 316 L 1070 315 L 1070 313 L 1071 312 L 1071 309 L 1072 308 L 1072 306 L 1073 305 L 1073 302 L 1074 301 L 1074 299 L 1075 298 L 1075 295 L 1076 294 L 1076 292 L 1077 291 L 1077 290 L 1055 290 L 1054 291 L 1048 291 L 1047 292 L 1042 292 L 1041 293 L 1037 293 L 1036 294 L 1030 294 L 1029 295 L 1024 295 L 1023 296 L 1019 296 L 1018 297 L 1013 297 L 1012 298 L 1006 298 L 1005 299 L 1000 299 L 999 300 L 994 300 L 993 301 L 988 301 L 987 302 L 982 302 L 981 303 L 976 303 L 975 304 L 970 304 L 969 305 L 964 305 L 963 306 L 957 306 L 956 307 L 951 307 L 950 308 L 945 308 L 944 309 L 939 309 L 938 310 L 933 310 L 932 311 L 927 311 L 926 312 L 921 312 L 920 313 Z
  " fill="#000000" fill-rule="evenodd"/>
</svg>
