<svg version="1.2" xmlns="http://www.w3.org/2000/svg" viewBox="0 0 1006 1140" width="1006" height="1140"><style>.a{fill:#0288f9}</style><path class="a" d="m733.7 18.3q2.9 0 5.9 0.1c1.6 0 1.6 0 3.2 0q5.3 0.1 10.7 0.2 3.7 0 7.5 0.1 9.6 0.1 19.3 0.2 8.5 0.2 17 0.3 17.9 0.2 35.8 0.6 8.9 0.1 17.7 0.3 14.8 0.3 29.5 0.6 17.1 0.3 34.1 0.6 16.5 0.3 33.1 0.6 7 0.1 14 0.3 8.1 0.1 16.3 0.3 3 0 6 0.1 4.1 0 8.1 0.1 1.2 0 2.4 0.1c5.5 0.1 5.5 0.1 7.7 1.2-1.5 3.1-3.2 5.9-5.1 8.8q-0.9 1.4-1.8 2.8-1 1.5-2 3c-4.7 7.2-9.3 14.3-13.7 21.6-4 6.6-8.2 13.1-12.5 19.4q-0.8 1.3-1.7 2.6c-0.7 1.1-0.7 1.1-1.5 2.3q-0.7 1-1.5 2-0.6 0.8-1.2 1.5-1 0-2 0-0.4 1-0.7 2.1c-1.5 3.4-3.4 6.5-5.4 9.7-0.7 1-0.7 1-1.3 2.1-4.8 7.5-9.8 14.9-14.8 22.4-3.6 5.4-7.3 10.9-10.8 16.5-2.5 3.9-5 7.7-7.8 11.4-3.4 4.6-6.4 9.3-9.5 14.1-5.1 8.3-10.5 16.5-15.9 24.7q-1.4 2-2.7 4-1.9 2.9-3.9 5.8c-0.5 0.9-0.5 0.9-1.1 1.8-1.9 2.7-3.8 5.1-6.1 7.4q-1.2 2-2.3 4.1c-2.7 5-5.8 9.7-9 14.4-5.5 8.1-10.8 16.3-16 24.6-4.6 7.2-9.2 14.2-14.5 20.9-2.4 3.3-4.6 6.7-6.7 10.2-5.7 9.2-11.7 18.2-17.8 27.2q-1.5 2.4-3.1 4.8-5.1 7.6-10.3 15.3c-4.7 7.1-9.4 14.2-14.1 21.4q-2.3 3.4-4.5 6.9c-5.3 8.1-10.6 16.2-15.8 24.3-2.2 3.3-4.6 6.4-7 9.4-2.5 3.3-4.8 6.6-7 10q-0.6 0.9-1.3 1.8c-2.1 3.3-4.1 6.5-5.9 9.9-3.2 5.9-7 11.4-10.8 17q-1 1.6-2.1 3.2-2 3-4.1 6-2.1 3.1-4.1 6.3-0.8 1.2-1.6 2.3-1 0-2 0-0.3 1.2-0.7 2.5c-1.6 4.3-3.8 7.7-6.4 11.4-0.8 1.1-0.8 1.1-1.5 2.3q-2.5 3.6-4.9 7.2-3.2 4.7-6.3 9.4c-0.8 1.1-0.8 1.1-1.6 2.3q-5.9 8.8-11.4 17.8c-2 3.3-4.1 6.4-6.6 9.4-3.8 4.8-7 9.9-10.2 15.1-3.5 5.7-7.2 11.3-10.9 16.8q-2.2 3.2-4.4 6.5-1.5 2.2-3 4.3-2.1 3.1-4.1 6.2c-0.7 0.9-0.7 0.9-1.3 1.8-1.4 2-1.4 2-2.7 5 0.4 2.7 0.4 2.7 2 5q0.8 1.3 1.6 2.6 0.9 1.4 1.8 2.9 1 1.5 2 3.1 1.1 1.7 2.2 3.3 1.1 1.7 2.2 3.4 2.1 3.4 4.3 6.7 3.4 5.3 6.8 10.7 3.3 5.1 6.6 10.2 0.7 0.9 1.3 1.9 1.2 1.9 2.5 3.8c2.7 4.2 2.7 4.2 2.7 6.4q1 0 2 0c1.6 2.1 3 4.2 4.4 6.4q0.7 1 1.4 2c3.2 5 6.3 10 9.3 15 6.2 10.3 12.8 20.1 19.5 30q6.2 9.3 12.4 18.6 2.2 3.2 4.3 6.3c4.8 7.2 9.4 14.4 13.9 21.8 2.5 4.1 5.1 8.1 7.8 12q0.8 1.2 1.6 2.4c2.7 4 5.5 8.1 8.5 12 3.2 4.3 6 8.8 8.7 13.4 4.8 7.9 9.8 15.7 14.9 23.5q0.6 0.9 1.2 1.8 7.6 11.6 15.3 23.1c0.8 1.2 0.8 1.2 1.7 2.4q3.8 5.9 7.7 11.7c5 7.4 9.9 14.8 14.3 22.5 2.5 4.2 5.2 8.2 8 12.1q0.7 1 1.5 2c0.5 0.7 0.5 0.7 1.1 1.5 6.5 8.9 12.4 18.3 18.2 27.7q4.3 6.8 8.7 13.5 0.5 0.8 1.1 1.7 2.9 4.4 5.9 8.8 1 1.6 2.1 3.3 1 1.4 2 2.9c1.3 2.3 2.1 4 2.5 6.6q1 0 2 0c1.7 2.3 3.3 4.6 4.8 7q0.8 1.1 1.5 2.2 2.3 3.6 4.6 7.2 1.6 2.4 3.2 4.8c5.6 8.6 11.1 17.3 16.4 26.1 3.1 5.3 6.7 10.1 10.4 15 3.9 5.3 7.3 10.8 10.6 16.4 4.7 7.7 9.8 15.3 14.8 22.8 11.7 17.3 11.7 17.3 11.7 20.5q1.5 0.5 3 1c1.8 2.5 3.4 4.9 5 7.5q1.5 2.3 3 4.7 0.7 1.2 1.5 2.4c2.3 3.7 4.7 7.3 7.1 11 4 6.2 8 12.5 11.9 18.8 2.9 4.7 5.9 9.1 9.1 13.5 1.5 2.3 2.5 4.5 3.4 7.1-2.8 1.4-5.3 1.2-8.4 1.2q-1 0-2.1 0-3.4 0.1-6.8 0.1-2.4 0-4.8 0.1-6.7 0-13.4 0.1-7.1 0.1-14.2 0.2-12 0.1-24.1 0.2-12.1 0.2-24.2 0.3-2.9 0-5.9 0.1-4.4 0-8.8 0.1-16.2 0.2-32.5 0.3-5.9 0-11.8 0-1.5 0-3 0.1-19.9 0.1-39.8 0.8-10.7 0.4-21.4 0.7c-4.8 0.1-9.7 0.2-14.5 0.5-28.7 1.5-28.7 1.5-36.3-4-5-5.3-8.1-11.3-10.8-18-1.7-4-4-7.5-6.4-11.1q-1.2-1.8-2.3-3.7-3.5-5.6-7-11.1c-4.2-6.6-8.3-13.1-12.3-19.8q-0.5-0.9-1-1.8-1.1-1.8-2.2-3.6c-4.1-6.9-8.2-13.7-13-20.2-5.6-7.5-10.4-15.5-14.8-23.7-3.1-5.7-6.4-11.1-9.9-16.4q-0.9-1.4-1.8-2.9-6.2-9.6-12.4-19.2c-4.6-7-9-14-13.4-21q-3.2-5.2-6.6-10.3c-2.7-4.3-5.2-8.7-7.5-13.2-2.3-4-4.8-7.8-7.3-11.6-1.3-2.2-1.3-2.2-1.3-4.2q-1 0-2 0c-1.7-2.5-3.2-4.9-4.7-7.5q-1.5-2.5-3-5-0.8-1.3-1.6-2.7c-3-5-6.2-10-9.3-15q-8.4-13.3-16.4-26.8-0.9-1.4-1.7-2.8c-1.3-2.2-1.3-2.2-1.3-4.2q-1 0-2 0c-1.2-1.5-1.2-1.5-2.5-3.6q-0.7-1.2-1.5-2.4-0.8-1.3-1.6-2.6-0.8-1.3-1.6-2.6-5.2-8.4-10.3-17c-7.7-12.9-15.6-25.6-24-38-4.9-7.3-9.4-14.8-13.8-22.3q-3.8-6.3-7.7-12.5-3 4.5-6 9-0.9 1.4-1.8 2.8c-10.3 15.6-19.6 31.9-29 48.1-15.4 26.8-15.4 26.8-20.8 34.1-3.7 5.2-6.6 10.8-9.6 16.4-6.2 11.4-13.1 22.4-19.9 33.5q-2.6 4.2-5.1 8.4-3.8 6.3-7.7 12.5-1.3 2.1-2.6 4.2c-2.4 3.9-2.4 3.9-3.6 5.8q-1.6 2.5-3.2 5c-0.8 1.4-0.8 1.4-1.7 2.8-1.7 2.9-3.3 5.7-4.8 8.6-3.1 5.7-6.4 11.3-9.7 16.9q-0.8 1.4-1.6 2.8c-2.5 4.2-5 8.4-7.8 12.4-3.7 5.4-6.9 11.1-10.2 16.8q-1.7 2.9-3.4 5.8-3.3 5.6-6.5 11.1c-7.3 12.5-14.7 24.8-22.5 36.9-4.7 7.5-9.2 15-13.4 22.7-3.8 6.9-7.8 13.6-11.8 20.3q-0.9 1.6-1.9 3.2-5.2 8.7-10.8 17.3-2.2 3.6-4.4 7.1-0.6 1.1-1.3 2.1-1.2 2.1-2.5 4.2c-3.2 5.1-3.2 5.1-5.4 6.2q-3.2 0.2-6.4 0.2-1 0-2.1 0-3.4 0.1-6.8 0.1-2.4 0-4.8 0.1-6.7 0-13.4 0.1-7.1 0.1-14.2 0.2-12 0.1-24.1 0.2-12.1 0.2-24.2 0.3-85.5 1-171 0.8c0.7-3 1.6-5.3 3.3-8 0.6-1.1 0.6-1.1 1.3-2.2q0.8-1.2 1.5-2.4c0.8-1.2 0.8-1.2 1.5-2.5 3.1-5 6.4-9.8 9.9-14.6 1.6-2.4 3-4.9 4.3-7.5 5.3-9.9 11.9-19 18.4-28.1 3.5-4.7 6.5-9.6 9.2-14.8 2.2-4.1 4.8-7.8 7.4-11.7 3.7-5.4 7.2-11 10.6-16.6 4-6.6 8.2-13 12.7-19.3 5.6-7.7 10.5-15.6 15.3-23.7 3.1-5 6.2-10 9.3-15 0.9-1.5 0.9-1.5 1.8-3 3.6-5.8 7.5-11.4 11.6-16.9 2.9-4.2 5.6-8.5 8.2-12.8 4-6.6 8.1-13.1 12.3-19.6 3.8-5.8 7.5-11.7 11.1-17.7 3.5-5.8 7.2-11.4 11.3-16.8 3.8-5.3 7.1-10.8 10.5-16.3 7.8-12.7 15.7-25.4 24-37.8 12.2-18.1 24-36.6 35.3-55.3 3-5 6.2-9.8 9.8-14.5 3.4-4.4 6.3-9 9.1-13.9 5.8-9.9 12-19.4 18.3-29q4.7-7.1 9.3-14.2 0.6-0.9 1.2-1.9c10.8-16.4 21.5-32.9 31.7-49.8 2.7-4.4 5.5-8.6 8.6-12.8 5.1-6.9 9.5-14.2 13.9-21.6 2.8-4.7 5.6-9.3 8.7-13.8q0.8-1.1 1.6-2.3 1.5-2.2 3-4.3c2.5-3.6 2.5-3.6 2.6-7.8q-0.8-1.2-1.6-2.5-0.5-0.9-1-1.8-1.9-3.2-3.9-6.3-0.7-1.2-1.4-2.4c-5.1-8.2-10.2-16.3-15.4-24.4q-1.9-3.1-3.9-6.2c-2.2-3.6-4.6-7.2-7-10.7-7.7-11.5-15.3-23.1-21.8-35.3-4.8-8.6-10.3-16.8-16-24.7-3.9-5.5-7.3-11.3-10.7-17-4.5-7.6-9.2-15.1-14-22.5-3.7-5.7-7.2-11.4-10.5-17.4-1.4-2.4-1.4-2.4-3.2-4.6-2.9-3.6-5.4-7.5-7.8-11.5q-0.8-1.2-1.6-2.5-5-7.9-9.6-16c-5.2-8.8-10.8-17.4-16.5-26-4.8-7.4-9.5-14.9-14.2-22.4q-2.3-3.5-4.6-7.1c-4.8-7.7-9.6-15.4-14.2-23.3-3.1-5.2-6.2-10.3-9.8-15.2-6.8-9.7-13-19.8-18.8-30.1-4.4-7.7-9.4-15-14.3-22.4q-1.5-2.3-3-4.6c-0.8-1.2-0.8-1.2-1.7-2.5-1.1-2.1-1.1-2.1-1.1-5.1q-1.5-0.5-3-1c-1.2-1.5-1.2-1.5-2.3-3.4-0.6-1-0.6-1-1.3-2.1q-0.6-1.2-1.3-2.4-1.5-2.5-3-4.9-0.8-1.3-1.6-2.6c-2.4-4.1-4.9-8-7.4-12q-6.5-10.2-12.7-20.5-0.8-1.2-1.6-2.5c-2.2-3.8-4.4-7.4-5.8-11.6q-1 0-2 0c-1.7-2.6-3.3-5.1-4.9-7.8q-1.5-2.5-3-5-0.7-1.3-1.5-2.6c-2.5-4.1-5-8.1-7.6-12.1q-6-9.5-11.9-19.1c-3-5.1-6.1-10.1-9.5-15-6.2-9.2-12.2-18.6-17.9-28.2-3.8-6.4-7.7-12.7-11.6-19q-1-1.5-2-3.2c-3.5-5.5-3.5-5.5-7.1-11 0.4-2.2 0.4-2.2 1-4q51.2-0.5 102.4-0.7 6 0 12.1 0 1.2 0 2.4 0 19.5-0.1 39-0.3 20-0.2 40-0.2 12.3 0 24.6-0.2 8.5-0.1 17-0.1 4.9 0 9.7 0c19.1-0.4 19.1-0.4 23.6 2.8 3.2 3.4 4.6 7.3 6.2 11.7 1.4 2.3 1.4 2.3 2.9 4.2 3.3 4.9 6.1 10.2 9 15.5 3.7 6.7 7.6 13.3 11.6 19.8 3.4 5.6 6.7 11.3 9.8 17.1 2.5 4.6 5 9 8.1 13.2 5.3 7.3 9.5 15.4 13.9 23.3 8.5 14.8 17.2 29.5 26.1 44.2q4.7 7.9 9.5 15.8 1.8 3.1 3.7 6.2 0.8 1.4 1.7 2.9 1.7 2.8 3.4 5.6 0.8 1.3 1.6 2.6c0.7 1.2 0.7 1.2 1.4 2.3 1.4 2.4 2.7 4.9 4 7.4 2.7 4.9 5.5 9.7 8.3 14.5q0.6 1.1 1.2 2.1c2.2 3.7 4.4 7.2 6.7 10.7 3.3 4.8 6.1 9.7 8.9 14.7 3.9 6.9 7.8 13.6 11.9 20.4 2.9 4.8 5.7 9.8 8.4 14.8 2.6 4.7 5.1 9.2 8.3 13.5 5.3 7.3 9.5 15.4 13.9 23.2 2.9 5.2 5.9 10.3 8.9 15.4q0.9 1.5 1.8 3c2.6 4.5 5.2 8.9 7.9 13.3q0.6 1.1 1.3 2.2 1.1 1.8 2.3 3.7c1.7 2.7 2.5 4.1 2.5 7.4q1 0 2 0c1.2 1.6 1.2 1.6 2.6 3.9q0.7 1.2 1.4 2.4 0.8 1.3 1.6 2.6 1.5 2.6 3 5.1 0.6 1.1 1.3 2.2c1 1.8 1 1.8 2.1 2.8q2.5-4 4.9-8.1 0.8-1.2 1.5-2.4 4.2-6.8 8.2-13.6c3.3-5.5 6.7-10.9 10.5-16.1 6.8-9.8 13-19.8 18.8-30.2 3.7-6.4 7.8-12.5 11.8-18.6q3.3-5.1 6.6-10.3 3.5-5.5 7.1-10.9c7-10.5 13.6-21.1 20-31.9 5.9-10.2 12.1-20.2 19-29.7 3.9-5.5 7.3-11.3 10.7-17 6.1-10.2 12.5-20.2 18.9-30.2q1.2-1.8 2.4-3.7 5-7.9 10.2-15.7c8.3-12.6 8.3-12.6 15.9-25.6 3.8-7 8.1-13.8 12.4-20.5q1-1.5 2-3.1 1-1.5 1.9-2.9 0.9-1.3 1.7-2.6 0.8-1 1.5-1.9 1 0 2 0 0.4-1.1 0.8-2.1c4.8-11.5 12.4-22 19.1-32.4q6.2-9.6 12.2-19.4c3.3-5.5 6.6-10.8 10.4-16 1.6-2.2 1.6-2.2 2.9-5.2 2.9-3.2 3.2-3.3 7.3-3.6z"/></svg>