<?xml version="1.0" encoding="UTF-8"?>
<svg version="1.1" xmlns="http://www.w3.org/2000/svg" width="1280" height="1280">
<path d="M0 0 C1.96863486 -0.00467865 3.93751601 0.02418378 5.90539265 0.07901669 C7.51229267 0.08823212 7.51229267 0.08823212 9.15165532 0.09763372 C12.7009109 0.12528791 16.24795046 0.19596134 19.79658222 0.26698971 C22.29396927 0.29547685 24.79138676 0.32140039 27.28882599 0.34487152 C33.73034735 0.41282512 40.17074363 0.51673223 46.611588 0.63114309 C52.27505313 0.72758453 57.93880902 0.79570444 63.60264301 0.86632442 C75.55546127 1.0235688 87.50686155 1.24035931 99.45849347 1.46926475 C105.3589071 1.58140081 111.25941583 1.68834008 117.15990925 1.79617977 C126.99183261 1.97667899 136.8236715 2.16130799 146.65546894 2.34853268 C158.01323853 2.56475431 169.37112681 2.7736386 180.72909766 2.97899431 C191.75666722 3.17857519 202.7841306 3.38353707 213.81155682 3.59087467 C218.47377803 3.67841694 223.13602913 3.76399575 227.798316 3.84796619 C233.24170437 3.94621742 238.68498435 4.049136 244.12821484 4.15576649 C246.12534829 4.19411709 248.12251426 4.23081388 250.11970997 4.26577282 C252.83338193 4.31353731 255.54687429 4.36716922 258.26040363 4.42236996 C259.0575062 4.43502091 259.85460876 4.44767186 260.67586595 4.46070617 C266.10269155 4.58032269 266.10269155 4.58032269 268.33100605 5.69447994 C266.858077 8.79899546 265.13663585 11.61901118 263.2411623 14.48354244 C262.62740742 15.4158569 262.01365253 16.34817135 261.38129902 17.30873775 C260.72532734 18.30228268 260.06935566 19.2958276 259.39350605 20.31947994 C254.70382318 27.45619667 250.09939118 34.62162063 245.70600605 41.94447994 C241.73824618 48.52588715 237.57711724 54.95580979 233.26850605 61.31947994 C232.70760273 62.15640377 232.14669941 62.9933276 231.56879902 63.85561275 C230.78400166 65.00175045 230.78400166 65.00175045 229.9833498 66.17104244 C229.51920673 66.85247311 229.05506367 67.53390377 228.57685566 68.23598385 C228.16572529 68.71728756 227.75459492 69.19859127 227.33100605 69.69447994 C226.67100605 69.69447994 226.01100605 69.69447994 225.33100605 69.69447994 C225.08608418 70.37897213 224.8411623 71.06346432 224.58881855 71.76869869 C223.1014902 75.22835378 221.21607759 78.3359223 219.20600605 81.50697994 C218.56707417 82.52284176 218.56707417 82.52284176 217.91523457 83.55922604 C213.12810491 91.11082503 208.14274365 98.53180315 203.16450214 105.95815182 C199.49256939 111.4377114 195.86090137 116.93492421 192.33100605 122.50697994 C189.8479643 126.40689862 187.28317076 130.17699139 184.51850605 133.88197994 C181.13543805 138.45868402 178.0875388 143.18018992 175.08100605 148.00697994 C169.90006898 156.311514 164.55010008 164.49667348 159.13020039 172.64647579 C158.22551443 174.00713401 157.32210307 175.36864058 156.41999531 176.73100948 C155.14273927 178.65883134 153.86069369 180.58337388 152.5770998 182.50697994 C152.00121365 183.37766361 152.00121365 183.37766361 151.41369343 184.26593685 C149.56969651 187.01624208 147.67153537 189.36887958 145.33100605 191.69447994 C144.52214514 193.03314391 143.76054999 194.40105562 143.0380373 195.78822994 C140.32426062 200.80512609 137.22359177 205.48101078 134.01850605 210.19447994 C128.55126114 218.3003254 123.25018047 226.49738225 118.01850605 234.75697994 C113.43847338 241.97431331 108.81051499 248.97822169 103.53584003 255.70619869 C101.10678953 258.99836768 98.97099719 262.39421756 96.83881855 265.88197994 C91.1329641 275.10925492 85.12118866 284.1214465 79.08100605 293.13197994 C78.02088886 294.71711838 76.96099228 296.30240439 75.90131855 297.88783932 C72.49040668 302.98985619 69.07603803 308.08955495 65.66035175 313.18837643 C60.9161613 320.28545314 56.23458104 327.42407078 51.54609394 334.55800533 C50.03306381 336.8598327 48.51896889 339.16095719 47.00483418 341.46205807 C41.68836192 349.54801619 36.41009908 357.65417678 31.22456074 365.82485104 C29.05613529 369.11103885 26.67805884 372.15357495 24.2177248 375.22182369 C21.74692238 378.45995606 19.47095943 381.81024499 17.20600605 385.19447994 C16.79809834 385.79961422 16.39019062 386.4047485 15.96992207 387.02822018 C13.83346566 390.24821757 11.86567356 393.50049873 10.0302248 396.90151119 C6.80370713 402.79751327 3.02488111 408.31455696 -0.73149395 413.88197994 C-1.43854473 414.93578854 -2.14559551 415.98959713 -2.87407207 417.07533932 C-4.22193538 419.08384547 -5.57282275 421.09032687 -6.92729473 423.09438229 C-8.33070484 425.18946466 -9.69078635 427.30297548 -11.0400877 429.43276119 C-11.57762676 430.17912838 -12.11516582 430.92549557 -12.66899395 431.69447994 C-13.32899395 431.69447994 -13.98899395 431.69447994 -14.66899395 431.69447994 C-14.89393536 432.52157467 -15.11887676 433.3486694 -15.35063457 434.2008276 C-16.95745594 438.45890421 -19.20377654 441.85306453 -21.76274395 445.59291744 C-22.52198162 446.72184917 -22.52198162 446.72184917 -23.29655743 447.87358761 C-24.91416852 450.27670494 -26.54098971 452.67339413 -28.16899395 455.06947994 C-30.28729855 458.19979165 -32.40128628 461.33298381 -34.51274395 464.46791744 C-35.2904565 465.62064899 -35.2904565 465.62064899 -36.08388042 466.79666805 C-40.00844168 472.64069515 -43.78123596 478.56803465 -47.45280743 484.5740881 C-49.48306325 487.8801922 -51.57850426 491.01022364 -54.04399395 494.00697994 C-57.89012938 498.77054217 -61.0388265 503.91512621 -64.2510252 509.1161108 C-67.7746742 514.78738924 -71.43821262 520.34505747 -75.18461895 525.87026119 C-76.64865355 528.04454649 -78.11133269 530.21973822 -79.57371807 532.39513302 C-80.55251161 533.84264145 -81.53774254 535.28581812 -82.52940655 536.72453976 C-83.9338078 538.76363763 -85.31487748 540.81687301 -86.69243145 542.87416744 C-87.33985302 543.79501881 -87.33985302 543.79501881 -88.00035381 544.73447323 C-89.33420622 546.66645097 -89.33420622 546.66645097 -90.66899395 549.69447994 C-90.26010893 552.36294711 -90.26010893 552.36294711 -88.66899395 554.69447994 C-88.15651104 555.56580563 -87.64402813 556.43713131 -87.11601543 557.3348608 C-86.51345928 558.26693356 -85.91090313 559.19900631 -85.2900877 560.15932369 C-84.6205003 561.19983883 -83.9509129 562.24035397 -83.26103497 563.31239986 C-82.55003643 564.40786129 -81.8390379 565.50332272 -81.10649395 566.63197994 C-80.37293585 567.76884514 -79.63978322 568.90597207 -78.90703106 570.0433569 C-77.47149851 572.27031198 -76.03336205 574.49551078 -74.59379864 576.71987057 C-72.29765617 580.26834848 -70.01332509 583.82429192 -67.73149395 587.38197994 C-65.54492419 590.7884699 -63.3482736 594.18753941 -61.12993145 597.57338619 C-60.70832745 598.22025387 -60.28672344 598.86712154 -59.85234356 599.53359127 C-59.04181878 600.77677713 -58.22771125 602.01763695 -57.40947247 603.25575924 C-54.66899395 607.46946785 -54.66899395 607.46946785 -54.66899395 609.69447994 C-54.00899395 609.69447994 -53.34899395 609.69447994 -52.66899395 609.69447994 C-51.09193704 611.7869351 -49.65198224 613.87306019 -48.23149395 616.06947994 C-47.78757305 616.74502926 -47.34365215 617.42057858 -46.88627911 618.11659908 C-43.66438862 623.05784753 -40.59023421 628.08127491 -37.54399395 633.13197994 C-31.3735175 643.34461343 -24.72541391 653.22314985 -18.06889629 663.12319088 C-13.9082358 669.31204547 -9.76207003 675.51058916 -5.61983013 681.71178341 C-4.20948308 683.8214153 -2.79615703 685.9290277 -1.382617 688.03652096 C3.4117673 695.20115294 8.05974149 702.42073716 12.54389668 709.78456783 C15.04665671 713.85975866 17.66713842 717.84833975 20.33100605 721.81947994 C20.84590595 722.59098385 21.36080585 723.36248775 21.89130878 724.15737057 C24.63359861 728.24442477 27.44166461 732.25465051 30.39350605 736.19447994 C33.5820006 740.51061281 36.38291197 744.97534927 39.14350605 749.56947994 C43.92955044 757.51679239 48.92823127 765.31466723 54.01850605 773.06947994 C54.41218372 773.66953854 54.8058614 774.26959713 55.2114687 774.88783932 C60.29564567 782.62988991 65.42495938 790.34126807 70.5770998 798.03822994 C71.3721014 799.22686138 71.3721014 799.22686138 72.18316364 800.43950558 C74.77382056 804.31229481 77.36822241 808.18245603 79.97041035 812.04750729 C84.94378601 819.45706965 89.78342522 826.90487313 94.27634907 834.61778927 C96.73188903 838.81110517 99.41802379 842.7659194 102.26850605 846.69447994 C102.73506611 847.33981686 103.20162617 847.98515377 103.68232441 848.65004635 C104.23351948 849.40293941 104.23351948 849.40293941 104.7958498 850.17104244 C111.29789957 859.14232004 117.25655523 868.4857783 123.06904316 877.91371822 C125.87613066 882.43959697 128.77020951 886.90357157 131.70600605 891.34682369 C132.09054447 891.92986767 132.47508289 892.51291164 132.87127399 893.11362362 C134.80915134 896.0507438 136.75312663 898.98354112 138.70625019 901.9105444 C139.41902119 902.98908688 140.13179218 904.06762936 140.8661623 905.17885494 C141.50948505 906.14532955 142.15280781 907.11180416 142.81562519 908.10756588 C144.15287842 910.39039739 144.8886881 912.11143452 145.33100605 914.69447994 C145.99100605 914.69447994 146.65100605 914.69447994 147.33100605 914.69447994 C149.03664319 917.00189157 150.61543408 919.31119928 152.1708498 921.71791744 C152.64899632 922.44646938 153.12714283 923.17502132 153.61977863 923.9256506 C155.17646041 926.30236771 156.72262985 928.68572336 158.26850605 931.06947994 C159.32967674 932.69438485 160.39119994 934.31905959 161.45307636 935.94350338 C167.06139502 944.54346735 172.56083917 953.19136428 177.81318378 962.01430416 C180.97499105 967.26862701 184.52920597 972.14335068 188.21992207 977.0355444 C192.12654629 982.27131893 195.49859411 987.746478 198.84345722 993.35268307 C203.52438325 1001.1429577 208.58301124 1008.66906999 213.67353535 1016.19618893 C225.33100605 1033.48691689 225.33100605 1033.48691689 225.33100605 1036.69447994 C226.32100605 1037.02447994 227.31100605 1037.35447994 228.33100605 1037.69447994 C230.10424583 1040.16263802 231.73214196 1042.61673097 233.33100605 1045.19447994 C234.31901905 1046.75584764 235.30730794 1048.31704078 236.2958498 1049.87807369 C236.7997121 1050.67970943 237.30357441 1051.48134518 237.82270527 1052.30727291 C240.14364136 1055.9806483 242.52151864 1059.61646179 244.89350605 1063.25697994 C248.94946516 1069.50474471 252.90625499 1075.80892731 256.82539082 1082.14321041 C259.69548485 1086.75414315 262.72708556 1091.21128946 265.95600605 1095.58119869 C267.44333435 1097.86712088 268.39947815 1100.13725671 269.33100605 1102.69447994 C266.4895518 1104.11520707 264.06569961 1103.85415505 260.88712788 1103.89066219 C260.21655295 1103.89968372 259.54597801 1103.90870525 258.85508263 1103.91800016 C256.59301934 1103.94720564 254.33094093 1103.96937714 252.06879902 1103.99159908 C250.4477563 1104.01104541 248.82671853 1104.03090747 247.20568562 1104.05115414 C242.76413091 1104.10529259 238.3225282 1104.15316239 233.88088846 1104.19973207 C229.14540634 1104.25016862 224.40997976 1104.30541854 219.67454243 1104.35986996 C211.62875131 1104.45158062 203.58292247 1104.53913791 195.53706074 1104.62441158 C187.47027124 1104.7099584 179.40354966 1104.79996615 171.33686543 1104.8949194 C169.37841899 1104.91782698 167.41997249 1104.94072853 165.46152592 1104.963624 C162.5257112 1104.99795727 159.58989886 1105.03245088 156.65409231 1105.06747603 C145.82606029 1105.19620597 134.99847366 1105.30497185 124.1698122 1105.36260128 C120.20758694 1105.38520705 116.24536974 1105.4089575 112.28315449 1105.43324947 C111.30388225 1105.43893043 110.32461001 1105.44461138 109.31566286 1105.45046449 C96.04331712 1105.53466956 82.79519291 1105.84437366 69.53195477 1106.33864975 C62.39524135 1106.60171919 55.25711894 1106.78618395 48.11748278 1106.94932336 C43.28700274 1107.06479349 38.466171 1107.22211658 33.64121342 1107.48343754 C4.88223152 1109.0117899 4.88223152 1109.0117899 -2.68981457 1103.49265575 C-7.64259088 1098.15159397 -10.73492299 1092.19378955 -13.47240353 1085.49259281 C-15.17471466 1081.51190017 -17.45674364 1078.03058876 -19.85649395 1074.44447994 C-20.64494235 1073.18301694 -21.4293767 1071.91902752 -22.20805645 1070.65151119 C-24.50508587 1066.94635194 -26.83873435 1063.26506227 -29.17509747 1059.58461666 C-33.32909439 1053.03856912 -37.4453014 1046.4768068 -41.41899395 1039.81947994 C-41.78057598 1039.21386227 -42.14215801 1038.60824459 -42.51469707 1037.98427486 C-43.22175508 1036.79892239 -43.9286278 1035.61345938 -44.63530254 1034.42787838 C-48.75998324 1027.51119606 -52.86962747 1020.66847917 -57.66899395 1014.19447994 C-63.25408939 1006.66007669 -68.06116329 998.70608105 -72.4932127 990.45229244 C-75.54414002 984.82965104 -78.8903925 979.44354052 -82.35649395 974.06947994 C-82.96734844 973.11581539 -83.57820293 972.16215084 -84.20756817 971.17958736 C-88.32224378 964.76281891 -92.46497556 958.36413846 -96.61601543 951.97084713 C-101.11967516 945.02428565 -105.53348357 938.02171503 -109.94243145 931.01479244 C-112.11847049 927.55855449 -114.32604208 924.12400024 -116.54399395 920.69447994 C-119.28913861 916.39773178 -121.71906034 911.9788147 -124.11430645 907.47963619 C-126.33681848 903.49810082 -128.83029416 899.70870885 -131.34868145 895.90932369 C-132.66899395 893.69447994 -132.66899395 893.69447994 -132.66899395 891.69447994 C-133.32899395 891.69447994 -133.98899395 891.69447994 -134.66899395 891.69447994 C-136.32414735 889.22577656 -137.85254841 886.75431273 -139.35649395 884.19447994 C-140.345962 882.54128705 -141.33692842 880.88899031 -142.3291502 879.23744869 C-142.86427227 878.34461178 -143.39939434 877.45177486 -143.95073223 876.53188229 C-147.00597137 871.48670052 -150.15563054 866.50070819 -153.29399395 861.50697994 C-158.85926943 852.63042511 -164.32656219 843.70682542 -169.66899395 834.69447994 C-170.2413377 833.78053463 -170.81368145 832.86658932 -171.40336895 831.92494869 C-172.66899395 829.69447994 -172.66899395 829.69447994 -172.66899395 827.69447994 C-173.32899395 827.69447994 -173.98899395 827.69447994 -174.66899395 827.69447994 C-175.85478497 826.18837643 -175.85478497 826.18837643 -177.1729002 824.06557369 C-177.66137432 823.28585201 -178.14984844 822.50613033 -178.65312481 821.70278072 C-179.17398663 820.85441647 -179.69484844 820.00605221 -180.23149395 819.13197994 C-180.77233624 818.26299068 -181.31317852 817.39400143 -181.87040997 816.49867916 C-185.35831634 810.87695228 -188.78269488 805.21808499 -192.16997051 799.53530025 C-199.86701274 786.63404669 -207.78664629 773.89952834 -216.20366192 761.45546627 C-221.06982953 754.20621524 -225.53505352 746.73183328 -229.9775877 739.21791744 C-232.47215815 734.99911871 -235.0496324 730.83675923 -237.66899395 726.69447994 C-239.68263854 729.68557474 -241.67943357 732.68729474 -243.66899395 735.69447994 C-244.27614239 736.60713619 -244.88329082 737.51979244 -245.5088377 738.46010494 C-255.76041362 754.12278139 -265.07144244 770.41825213 -274.41899395 786.63197994 C-289.8603854 813.40054018 -289.8603854 813.40054018 -295.23149395 820.69447994 C-298.98671967 825.87471972 -301.88007314 831.48044729 -304.90825176 837.10219479 C-311.11367913 848.51358761 -317.98529177 859.52874715 -324.77641582 870.59706783 C-326.49119345 873.40348988 -328.18849006 876.21927686 -329.8760252 879.04213619 C-332.38117211 883.22997115 -334.94587261 887.37634816 -337.54399395 891.50697994 C-338.41143845 892.89223571 -339.27862238 894.27765467 -340.14555645 895.66322994 C-342.59910212 899.58294148 -342.59910212 899.58294148 -343.80473614 901.50697994 C-344.84607828 903.17161406 -345.8826184 904.83924917 -346.91899395 906.50697994 C-347.79297832 907.90883541 -347.79297832 907.90883541 -348.68461895 909.33901119 C-350.3537661 912.16144702 -351.93642403 915.00310654 -353.49711895 917.88588619 C-356.59772474 923.60571854 -359.85432999 929.22155577 -363.16899395 934.81947994 C-363.71168926 935.74373775 -364.25438457 936.66799557 -364.8135252 937.62026119 C-367.29607536 941.82104416 -369.81448246 945.96439452 -372.55961895 949.99916744 C-376.238032 955.44317048 -379.51556198 961.11859888 -382.81544781 966.79595089 C-383.94118404 968.73265554 -385.07039634 970.66729638 -386.20048809 972.60146236 C-388.3593906 976.29754576 -390.51454108 979.99580104 -392.66899395 983.69447994 C-399.93175187 996.15981193 -407.41811984 1008.45199438 -415.16899395 1020.62026119 C-419.89224792 1028.06481124 -424.33166184 1035.59922905 -428.56083965 1043.3348608 C-432.33671039 1050.19471169 -436.32555957 1056.91938 -440.35649395 1063.63197994 C-440.97419659 1064.66186031 -441.59189922 1065.69174068 -442.22832012 1066.75282955 C-445.7506945 1072.59615924 -449.35406691 1078.37946431 -453.03300762 1084.12538815 C-454.5337764 1086.48213936 -456.00866964 1088.8520596 -457.4697752 1091.23354244 C-457.88936504 1091.9154565 -458.30895489 1092.59737057 -458.74125957 1093.29994869 C-459.59085306 1094.68338124 -460.43704239 1096.0689085 -461.28032207 1097.45619869 C-464.4464112 1102.58318857 -464.4464112 1102.58318857 -466.66899395 1103.69447994 C-468.81468396 1103.81288732 -470.96405923 1103.86598224 -473.11287212 1103.89066219 C-473.78344705 1103.89968372 -474.45402199 1103.90870525 -475.14491737 1103.91800016 C-477.40698066 1103.94720564 -479.66905907 1103.96937714 -481.93120098 1103.99159908 C-483.5522437 1104.01104541 -485.17328147 1104.03090747 -486.79431438 1104.05115414 C-491.23586909 1104.10529259 -495.6774718 1104.15316239 -500.11911154 1104.19973207 C-504.85459366 1104.25016862 -509.59002024 1104.30541854 -514.32545757 1104.35986996 C-522.37124869 1104.45158062 -530.41707753 1104.53913791 -538.46293926 1104.62441158 C-546.52972868 1104.7099584 -554.5964511 1104.79990557 -562.66313457 1104.8949194 C-619.66711492 1105.56554181 -676.66117753 1105.8275608 -733.66899395 1105.69447994 C-732.96167466 1102.65252759 -732.05017192 1100.38746091 -730.41118145 1097.71791744 C-729.72511822 1096.59558712 -729.72511822 1096.59558712 -729.02519512 1095.45058346 C-728.53639874 1094.6648193 -728.04760235 1093.87905514 -727.54399395 1093.06947994 C-726.79629742 1091.85506222 -726.79629742 1091.85506222 -726.0334959 1090.6161108 C-722.92275792 1085.5999766 -719.6526883 1080.7479287 -716.20024395 1075.96010494 C-714.56988698 1073.54784208 -713.21227795 1071.08296955 -711.85649395 1068.50697994 C-706.59729432 1058.60238647 -700.0045947 1049.49905686 -693.41899395 1040.44447994 C-689.94848524 1035.66491971 -686.99513695 1030.80214019 -684.2666502 1025.56557369 C-682.02137887 1021.5306729 -679.42244967 1017.75469416 -676.82866192 1013.94032955 C-673.15087463 1008.49804299 -669.7137242 1002.92661894 -666.29399395 997.31947994 C-662.25482222 990.71451145 -658.07398278 984.28556658 -653.54399395 978.00697994 C-648.01542933 970.33276079 -643.101255 962.37791523 -638.23051739 954.27553463 C-635.18700177 949.24488312 -632.08584796 944.25023681 -628.98149395 939.25697994 C-628.07306744 937.78346066 -628.07306744 937.78346066 -627.14628887 936.2801733 C-623.51935496 930.45319113 -619.66093775 924.88850065 -615.58623028 919.36708736 C-612.6213134 915.2340242 -609.98828582 910.91937403 -607.35649395 906.56947994 C-603.33377785 899.99264911 -599.26373692 893.4592702 -595.04399395 887.00697994 C-591.23429107 881.18102676 -587.57539756 875.28078147 -583.98149395 869.31947994 C-580.4595352 863.48771709 -576.75276826 857.93839097 -572.66899395 852.47963619 C-568.89390903 847.22253551 -565.57946992 841.66748043 -562.18803692 836.15834713 C-554.36275872 823.46585154 -546.51308471 810.79698687 -538.17680645 798.43276119 C-525.95595421 780.28828588 -514.13053382 761.8156397 -502.85649395 743.06947994 C-499.83186272 738.04624659 -496.7076069 733.27187548 -493.10649395 728.63197994 C-489.64396416 724.16439726 -486.72965705 719.58266263 -483.91899395 714.69447994 C-478.21142341 704.77544438 -471.96132725 695.24991426 -465.66899395 685.69447994 C-462.56265106 680.96674023 -459.45873539 676.23741185 -456.35649395 671.50697994 C-455.95262463 670.89120083 -455.5487553 670.27542171 -455.13264751 669.64098263 C-444.33653392 653.17425374 -433.62096729 636.66308662 -423.46123028 619.79408932 C-420.77595774 615.37949924 -417.92348559 611.16361777 -414.85649395 607.00697994 C-409.75410049 600.08649226 -405.35465228 592.77233374 -400.94707012 585.39540768 C-398.15082301 580.72601745 -395.32244486 576.11209387 -392.2588377 571.61244869 C-391.73604229 570.84005856 -391.21324688 570.06766842 -390.67460918 569.27187252 C-389.69606083 567.84046588 -388.70277073 566.41898791 -387.69267559 565.00966549 C-385.18002385 561.43869728 -385.18002385 561.43869728 -385.08305645 557.24135494 C-385.60641582 556.40088619 -386.1297752 555.56041744 -386.66899395 554.69447994 C-387.00576153 554.11198483 -387.34252911 553.52948971 -387.68950176 552.92934322 C-388.93704629 550.78476479 -390.23510551 548.67715176 -391.54399395 546.56947994 C-392.02433086 545.78975826 -392.50466778 545.01003658 -392.99956036 544.20668697 C-398.04540695 536.03791888 -403.1801645 527.92495358 -408.32646465 519.8192358 C-409.63967061 517.74088857 -410.9386604 515.65422331 -412.2354002 513.56557369 C-414.49098493 509.95058047 -416.84584962 506.41194164 -419.23149395 502.88197994 C-426.93792294 491.38434221 -434.59193142 479.81640179 -441.05180645 467.56557369 C-445.85566918 459.03697683 -451.37130268 450.81003846 -457.10649395 442.88197994 C-460.99744042 437.41437033 -464.34316375 431.62911843 -467.76323223 425.86122799 C-472.28246768 418.26692627 -477.01274431 410.81972039 -481.78593731 403.38320065 C-485.43474135 397.68274496 -488.94790422 391.94995202 -492.23930645 386.03432369 C-493.63442506 383.636305 -493.63442506 383.636305 -495.49711895 381.43276119 C-498.39390658 377.78051635 -500.82142153 373.89199694 -503.29399395 369.94447994 C-503.82468487 369.10175533 -504.35537579 368.25903072 -504.90214825 367.390769 C-508.19665479 362.13100568 -511.37702327 356.81800328 -514.48149395 351.44447994 C-519.63248652 342.54750302 -525.28593177 333.99424972 -530.9307127 325.40541744 C-535.79059699 318.00449021 -540.50270671 310.51319743 -545.20854473 303.01381588 C-546.70703631 300.63406496 -548.21587448 298.26116371 -549.7275877 295.88979244 C-554.61573571 288.21141069 -559.41275714 280.50536926 -563.98149395 272.63197994 C-567.03308566 267.37807989 -570.20622694 262.32975589 -573.76274395 257.39760494 C-580.59617218 247.70757967 -586.77778253 237.63793523 -592.5713377 227.29994869 C-596.95930222 219.6236903 -601.9690713 212.29365515 -606.84184551 204.9195776 C-607.8520546 203.38971551 -608.85458648 201.85479158 -609.85649395 200.31947994 C-610.68213848 199.07037838 -610.68213848 199.07037838 -611.5244627 197.79604244 C-612.66899395 195.69447994 -612.66899395 195.69447994 -612.66899395 192.69447994 C-613.65899395 192.36447994 -614.64899395 192.03447994 -615.66899395 191.69447994 C-616.82890606 190.23012447 -616.82890606 190.23012447 -617.9463377 188.32729244 C-618.58333599 187.26115719 -618.58333599 187.26115719 -619.23320293 186.17348385 C-619.68638897 185.39666256 -620.139575 184.61984127 -620.60649395 183.81947994 C-621.59463522 182.16236918 -622.58426699 180.50614647 -623.57524395 178.85072994 C-624.0857127 177.99479244 -624.59618145 177.13885494 -625.12211895 176.25697994 C-627.54998766 172.23505602 -630.07952117 168.27958059 -632.60649395 164.31947994 C-636.91385478 157.53289469 -641.14054949 150.70139564 -645.29399395 143.81947994 C-645.80309307 142.98110592 -646.31219219 142.1427319 -646.83671856 141.2789526 C-649.10224262 137.50397925 -651.22896159 133.87904456 -652.66899395 129.69447994 C-653.32899395 129.69447994 -653.98899395 129.69447994 -654.66899395 129.69447994 C-656.38458463 127.12109392 -657.97835098 124.54532231 -659.54399395 121.88197994 C-660.54002259 120.21840019 -661.53746459 118.55566598 -662.53618145 116.89369869 C-663.05277325 116.03179928 -663.56936504 115.16989986 -664.10161114 114.28188229 C-666.56510677 110.21519588 -669.11592551 106.2053138 -671.66899395 102.19447994 C-675.69318467 95.85833939 -679.6473967 89.48485367 -683.54399395 83.06947994 C-686.61172257 78.02407043 -689.70655704 73.02190865 -693.0244627 68.13588619 C-699.25972012 58.87926889 -705.2699183 49.48098353 -710.95756817 39.87856197 C-714.74566379 33.50820602 -718.67570777 27.22749997 -722.60649395 20.94447994 C-723.27003887 19.88350094 -723.93358379 18.82252193 -724.61723614 17.72939205 C-728.09112238 12.17843582 -728.09112238 12.17843582 -731.66899395 6.69447994 C-731.29399395 4.50697994 -731.29399395 4.50697994 -730.66899395 2.69447994 C-696.53639826 2.39687591 -662.40409891 2.16783134 -628.27048588 2.03063066 C-624.24007108 2.01437162 -620.20965884 1.99754541 -616.17924786 1.98036861 C-615.37687097 1.97695858 -614.57449408 1.97354854 -613.74780273 1.97003517 C-600.75832487 1.91347862 -587.7695955 1.81098683 -574.78056157 1.69149359 C-561.45094338 1.56989057 -548.12171696 1.49770947 -534.79156685 1.47132951 C-526.566673 1.45349714 -518.34389459 1.39720187 -510.11965209 1.29156587 C-504.47864391 1.22280442 -498.83872789 1.20208647 -493.19733113 1.21896204 C-489.94211048 1.22728604 -486.69135746 1.20749456 -483.43662357 1.14480877 C-464.34442537 0.79511495 -464.34442537 0.79511495 -459.86710644 3.97369123 C-456.68721386 7.42070446 -455.22372146 11.29336264 -453.66899395 15.69447994 C-452.2410403 18.01574844 -452.2410403 18.01574844 -450.79399395 19.88197994 C-447.43809874 24.84365296 -444.63761651 30.09708469 -441.76323223 35.34560299 C-438.06006484 42.07359418 -434.12756481 48.64509225 -430.14238262 55.20888424 C-426.73905118 60.84018954 -423.50652603 66.54321004 -420.35649395 72.31947994 C-417.86244153 76.88381917 -415.37872271 81.30728898 -412.29399395 85.50697994 C-406.95713644 92.80939337 -402.78614037 100.8832041 -398.34428692 108.74574947 C-389.89232269 123.62229042 -381.14038359 138.32688808 -372.30522442 152.97817135 C-369.12719179 158.25402797 -365.96179659 163.53747704 -362.79399395 168.81947994 C-361.56747843 170.86377896 -360.34091775 172.90805089 -359.11430645 174.95229244 C-358.53745098 175.9143359 -357.96059551 176.87637936 -357.36625957 177.86757565 C-356.24216198 179.73983197 -355.11588757 181.6107832 -353.98735332 183.48036861 C-353.46206036 184.35153316 -352.93676739 185.22269772 -352.39555645 186.12026119 C-351.70453838 187.26361935 -351.70453838 187.26361935 -350.99956036 188.43007565 C-349.58143568 190.84348965 -348.24280048 193.29072389 -346.91899395 195.75697994 C-344.26407284 200.668584 -341.49032308 205.50225535 -338.66899395 210.31947994 C-338.26583965 211.01178707 -337.86268536 211.7040942 -337.44731426 212.41738033 C-335.30872261 216.05169783 -333.08619056 219.59440238 -330.7197752 223.08510494 C-327.50604493 227.85694526 -324.67089282 232.80467362 -321.85649395 237.81947994 C-317.9873926 244.65776631 -314.05281016 251.44004536 -309.96708965 258.15077877 C-307.01928944 263.02821795 -304.27700288 268.00674577 -301.54399395 273.00697994 C-298.98840132 277.67224234 -296.45190502 282.21467364 -293.29399395 286.50697994 C-287.96202892 293.80269899 -283.79506494 301.86835831 -279.35747051 309.72377682 C-276.43734771 314.86143648 -273.46053792 319.96582774 -270.48149395 325.06947994 C-269.89408428 326.07792965 -269.30667461 327.08637936 -268.70146465 328.12538815 C-266.09704339 332.58598501 -263.47723571 337.03398737 -260.7822752 341.44057369 C-260.35648174 342.13811764 -259.93068829 342.83566158 -259.491992 343.55434322 C-258.71973075 344.81306453 -257.94166686 346.0682531 -257.15654278 347.31899166 C-255.48671377 350.03604259 -254.66899395 351.43405858 -254.66899395 354.69447994 C-254.00899395 354.69447994 -253.34899395 354.69447994 -252.66899395 354.69447994 C-251.44804668 356.33095455 -251.44804668 356.33095455 -250.1025877 358.59682369 C-249.61725567 359.40442135 -249.13192364 360.212019 -248.63188457 361.04408932 C-248.12850567 361.89809322 -247.62512676 362.75209713 -247.10649395 363.63197994 C-246.10624145 365.30838789 -245.10499162 366.9842013 -244.1025877 368.65932369 C-243.65971416 369.40818844 -243.21684063 370.15705318 -242.76054668 370.9286108 C-241.78972179 372.65031174 -241.78972179 372.65031174 -240.66899395 373.69447994 C-239.02232649 371.007488 -237.37655295 368.31995653 -235.73149395 365.63197994 C-235.23294903 364.81793697 -234.73440411 364.003894 -234.22075176 363.16518307 C-231.46092649 358.65166385 -228.72838976 354.1241338 -226.03251934 349.57216549 C-222.75718639 344.04912543 -219.34989859 338.69106832 -215.6104002 333.46791744 C-208.79133583 323.72639692 -202.57243402 313.65521562 -196.7588377 303.28822994 C-193.11714459 296.91837728 -189.00313497 290.83182003 -184.98002911 284.69936275 C-182.7470568 281.28462 -180.55434679 277.84433232 -178.35576153 274.40737057 C-176.00759689 270.74821109 -173.62817709 267.11113079 -171.23149395 263.48354244 C-164.31518475 252.99392678 -157.64542623 242.42481462 -151.31596661 231.5704565 C-145.37403429 221.40899776 -139.12288719 211.43029588 -132.23149395 201.88197994 C-128.33930547 196.41262504 -124.99444382 190.62476931 -121.57036114 184.85683346 C-115.4961967 174.65850271 -109.08385003 164.6805978 -102.66899395 154.69447994 C-101.88217968 153.46423876 -101.09567521 152.23379934 -100.30961895 151.00307369 C-96.94173843 145.74234303 -93.54652251 140.50334154 -90.1025877 135.29213619 C-81.76609573 122.71853834 -81.76609573 122.71853834 -74.16899395 109.69447994 C-70.34541786 102.65308004 -66.08388877 95.92016175 -61.73149395 89.19447994 C-61.06762676 88.15936275 -60.40375957 87.12424557 -59.7197752 86.05776119 C-59.09586895 85.10256588 -58.4719627 84.14737057 -57.8291502 83.16322994 C-57.26848858 82.30149166 -56.70782696 81.43975338 -56.13017559 80.55190182 C-55.64798565 79.9389526 -55.16579571 79.32600338 -54.66899395 78.69447994 C-54.00899395 78.69447994 -53.34899395 78.69447994 -52.66899395 78.69447994 C-52.40344707 77.98807369 -52.1379002 77.28166744 -51.86430645 76.55385494 C-47.06233456 65.06678493 -39.46375489 54.58757389 -32.74687481 44.17372799 C-28.60958676 37.75333242 -24.55323935 31.29609914 -20.60649395 24.75697994 C-17.31603434 19.31269914 -13.93792206 13.99172081 -10.2041502 8.83510494 C-8.52226841 6.63069921 -8.52226841 6.63069921 -7.23394585 3.59915733 C-4.38418964 0.37195357 -4.03961118 0.25534177 0 0 Z " fill="#FFFFFF" transform="translate(733.6689939498901,86.30552005767822)"/>
<path d="M0 0 C2.11679584 0.03159028 4.23284332 0.04103564 6.34985352 0.046875 C15.17735889 0.10581039 23.15881138 0.7458758 31.65649414 3.28125 C32.96098525 3.6114462 34.2670624 3.93542464 35.57446289 4.25390625 C70.37875023 12.99172592 101.19421487 34.45928417 119.90698242 65.34521484 C137.48720786 95.61017345 144.40663335 133.9050388 136.75805664 168.359375 C136.40152471 169.66961282 136.03339802 170.97672648 135.65649414 172.28125 C135.42542969 173.09271484 135.19436523 173.90417969 134.95629883 174.74023438 C124.75792748 209.55580651 103.38526481 240.21553347 71.39770508 258.38793945 C38.78601834 276.18272561 -0.37470835 280.62540213 -36.34350586 271.28125 C-37.02574219 271.10464844 -37.70797852 270.92804688 -38.41088867 270.74609375 C-69.19860641 262.37902401 -100.2279099 239.97980338 -116.38647461 212.02734375 C-117.05037932 210.78475396 -117.70202154 209.53556126 -118.34350586 208.28125 C-118.72458496 207.5402002 -119.10566406 206.79915039 -119.49829102 206.03564453 C-124.07401266 196.92302554 -127.79995456 187.59388235 -130.78100586 177.84375 C-131.0159375 177.07651611 -131.25086914 176.30928223 -131.49291992 175.51879883 C-134.9887372 163.34170199 -135.72118707 151.1824371 -135.65600586 138.59375 C-135.65385071 137.84424072 -135.65169556 137.09473145 -135.6494751 136.32250977 C-135.59772365 125.10231792 -135.29540546 114.16637977 -132.34350586 103.28125 C-132.15014648 102.56727051 -131.95678711 101.85329102 -131.75756836 101.11767578 C-126.70996349 83.26021564 -118.79447784 66.87678942 -107.34350586 52.28125 C-106.63452148 51.36730469 -105.92553711 50.45335937 -105.19506836 49.51171875 C-103.34350586 47.28125 -103.34350586 47.28125 -101.03100586 45.46875 C-98.73536087 43.60020176 -97.14507773 41.91394869 -95.28100586 39.65625 C-78.4158033 20.05910318 -53.04392916 9.01628517 -28.34350586 3.28125 C-26.82116333 2.89066406 -26.82116333 2.89066406 -25.26806641 2.4921875 C-16.71222172 0.43027452 -8.73941222 -0.13131175 0 0 Z " fill="#FFE400" transform="translate(1141.343505859375,916.71875)"/>
</svg>
